%FSLAX44Y44*%
%MOMM*%
G71*
G01*
G75*
G04 Layer_Color=8421504*
%ADD10R,0.6000X2.2000*%
%ADD11R,2.0000X1.5000*%
%ADD12R,0.8000X0.6000*%
%ADD13R,0.6000X0.8000*%
%ADD14R,1.2700X1.5240*%
%ADD15R,1.2700X1.2700*%
%ADD16R,0.8000X0.9000*%
%ADD17R,0.8000X0.4000*%
%ADD18O,3.3000X1.5000*%
%ADD19C,0.2540*%
%ADD20C,0.7620*%
%ADD21C,0.5080*%
%ADD22R,2.6590X2.6992*%
%ADD23R,3.6830X1.3208*%
%ADD24O,5.0800X2.5400*%
%ADD25O,2.5400X5.0800*%
%ADD26P,1.7046X8X112.5*%
%ADD27C,1.5748*%
%ADD28C,1.5750*%
%ADD29O,3.0000X5.0000*%
%ADD30C,2.5000*%
%ADD31C,3.2500*%
%ADD32C,1.2000*%
%ADD33O,1.5000X1.2000*%
%ADD34C,1.5000*%
%ADD35C,3.2000*%
%ADD36R,1.5000X1.5000*%
%ADD37C,1.3000*%
%ADD38R,1.2000X1.2000*%
%ADD39R,1.3000X1.3000*%
%ADD40O,0.9000X1.4000*%
%ADD41C,4.0000*%
%ADD42C,0.7112*%
%ADD43C,0.8000*%
%ADD44C,1.2700*%
%ADD45C,1.0160*%
%ADD46R,2.6082X2.7000*%
%ADD47C,1.1000*%
%ADD48C,0.2000*%
%ADD49C,0.2500*%
%ADD50C,0.2032*%
%ADD51C,0.1500*%
%ADD52C,0.1001*%
%ADD53C,0.1000*%
%ADD54C,0.3048*%
%ADD55C,0.1270*%
%ADD56C,0.1016*%
%ADD57C,0.1200*%
%ADD58C,0.1524*%
D10*
X300028Y597138D02*
D03*
X312729D02*
D03*
X300028Y649138D02*
D03*
X312729D02*
D03*
X388928Y597138D02*
D03*
X376228D02*
D03*
X350829Y649138D02*
D03*
X338129D02*
D03*
X388928D02*
D03*
X363529D02*
D03*
X376228D02*
D03*
X325429D02*
D03*
X350829Y597138D02*
D03*
X338129D02*
D03*
X363529D02*
D03*
X325429D02*
D03*
D11*
X324192Y126560D02*
D03*
X250193D02*
D03*
X431812D02*
D03*
X357812D02*
D03*
X539432D02*
D03*
X465433D02*
D03*
X647052D02*
D03*
X573052D02*
D03*
D12*
X302933Y673008D02*
D03*
Y687008D02*
D03*
X299368Y554578D02*
D03*
Y568578D02*
D03*
X345418Y554578D02*
D03*
Y568578D02*
D03*
X360768D02*
D03*
Y554578D02*
D03*
X318575Y673008D02*
D03*
Y687008D02*
D03*
X314718Y554578D02*
D03*
Y568578D02*
D03*
X376118D02*
D03*
Y554578D02*
D03*
X330069D02*
D03*
Y568578D02*
D03*
X334218Y687008D02*
D03*
Y673008D02*
D03*
X349860Y687008D02*
D03*
Y673008D02*
D03*
X391468Y568578D02*
D03*
Y554578D02*
D03*
X406708Y629538D02*
D03*
Y615538D02*
D03*
X365502Y673008D02*
D03*
Y687008D02*
D03*
D13*
X536308Y190008D02*
D03*
X522308D02*
D03*
X420446D02*
D03*
X434446D02*
D03*
X488000D02*
D03*
X502000D02*
D03*
X385000D02*
D03*
X399000D02*
D03*
X677000Y595000D02*
D03*
X691000D02*
D03*
X677000Y452000D02*
D03*
X691000D02*
D03*
X677000Y311000D02*
D03*
X691000D02*
D03*
X677000Y878000D02*
D03*
X691000D02*
D03*
X677000Y736000D02*
D03*
X691000D02*
D03*
D14*
X415130Y577012D02*
D03*
Y549072D02*
D03*
X270000Y660000D02*
D03*
Y687940D02*
D03*
D15*
X169287Y239085D02*
D03*
Y217495D02*
D03*
X300028Y223547D02*
D03*
Y201957D02*
D03*
D16*
X190610Y216339D02*
D03*
Y231339D02*
D03*
X189800Y181949D02*
D03*
Y196949D02*
D03*
X320000Y201949D02*
D03*
Y216949D02*
D03*
X175000Y196949D02*
D03*
Y181949D02*
D03*
X160000D02*
D03*
Y196949D02*
D03*
D17*
X205000Y197253D02*
D03*
Y216253D02*
D03*
X233000D02*
D03*
Y206753D02*
D03*
Y197253D02*
D03*
D18*
X264000Y219999D02*
D03*
Y197999D02*
D03*
M02*
