%FSLAX44Y44*%
%MOMM*%
G71*
G01*
G75*
G04 Layer_Color=8388736*
%ADD10R,0.6000X2.2000*%
%ADD11R,2.0000X1.5000*%
%ADD12R,0.8000X0.6000*%
%ADD13R,0.6000X0.8000*%
%ADD14R,1.2700X1.5240*%
%ADD15R,1.2700X1.2700*%
%ADD16R,0.8000X0.9000*%
%ADD17R,0.8000X0.4000*%
%ADD18O,3.3000X1.5000*%
%ADD19C,0.2540*%
%ADD20C,0.7620*%
%ADD21C,0.5080*%
%ADD22R,2.6590X2.6992*%
%ADD23R,3.6830X1.3208*%
%ADD24O,5.0800X2.5400*%
%ADD25O,2.5400X5.0800*%
%ADD26P,1.7046X8X112.5*%
%ADD27C,1.5748*%
%ADD28C,1.5750*%
%ADD29O,3.0000X5.0000*%
%ADD30C,2.5000*%
%ADD31C,3.2500*%
%ADD32C,1.2000*%
%ADD33O,1.5000X1.2000*%
%ADD34C,1.5000*%
%ADD35C,3.2000*%
%ADD36R,1.5000X1.5000*%
%ADD37C,1.3000*%
%ADD38R,1.2000X1.2000*%
%ADD39R,1.3000X1.3000*%
%ADD40O,0.9000X1.4000*%
%ADD41C,4.0000*%
%ADD42C,0.7112*%
%ADD43C,0.8000*%
%ADD44C,1.2700*%
%ADD45C,1.0160*%
%ADD46R,2.6082X2.7000*%
%ADD47C,1.1000*%
%ADD48C,0.2000*%
%ADD49C,0.2500*%
%ADD50C,0.2032*%
%ADD51C,0.1500*%
%ADD52C,0.1001*%
%ADD53C,0.1000*%
%ADD54C,0.3048*%
%ADD55C,0.1270*%
%ADD56C,0.1016*%
%ADD57C,0.1200*%
%ADD58C,0.1524*%
%ADD59R,0.8032X2.4032*%
%ADD60R,2.2032X1.7032*%
%ADD61R,1.0032X0.8032*%
%ADD62R,0.8032X1.0032*%
%ADD63R,1.4732X1.7272*%
%ADD64R,1.4732X1.4732*%
%ADD65R,1.0032X1.1032*%
%ADD66R,1.0032X0.6032*%
%ADD67O,3.5032X1.7032*%
%ADD68O,5.2832X2.7432*%
%ADD69O,2.7432X5.2832*%
%ADD70P,1.9245X8X112.5*%
%ADD71C,1.7780*%
%ADD72C,1.7782*%
%ADD73O,3.2032X5.2032*%
%ADD74C,2.7032*%
%ADD75C,3.4532*%
%ADD76C,1.4032*%
%ADD77O,1.7032X1.4032*%
%ADD78C,1.7032*%
%ADD79C,3.4032*%
%ADD80R,1.7032X1.7032*%
%ADD81C,1.5032*%
%ADD82R,1.4032X1.4032*%
%ADD83R,1.5032X1.5032*%
%ADD84O,1.1032X1.6032*%
%ADD85C,4.2032*%
D59*
X300028Y597138D02*
D03*
X312729D02*
D03*
X300028Y649138D02*
D03*
X312729D02*
D03*
X388928Y597138D02*
D03*
X376228D02*
D03*
X350829Y649138D02*
D03*
X338129D02*
D03*
X388928D02*
D03*
X363529D02*
D03*
X376228D02*
D03*
X325429D02*
D03*
X350829Y597138D02*
D03*
X338129D02*
D03*
X363529D02*
D03*
X325429D02*
D03*
D60*
X324192Y126560D02*
D03*
X250193D02*
D03*
X431812D02*
D03*
X357812D02*
D03*
X539432D02*
D03*
X465433D02*
D03*
X647052D02*
D03*
X573052D02*
D03*
D61*
X302933Y673008D02*
D03*
Y687008D02*
D03*
X299368Y554578D02*
D03*
Y568578D02*
D03*
X345418Y554578D02*
D03*
Y568578D02*
D03*
X360768D02*
D03*
Y554578D02*
D03*
X318575Y673008D02*
D03*
Y687008D02*
D03*
X314718Y554578D02*
D03*
Y568578D02*
D03*
X376118D02*
D03*
Y554578D02*
D03*
X330069D02*
D03*
Y568578D02*
D03*
X334218Y687008D02*
D03*
Y673008D02*
D03*
X349860Y687008D02*
D03*
Y673008D02*
D03*
X391468Y568578D02*
D03*
Y554578D02*
D03*
X406708Y629538D02*
D03*
Y615538D02*
D03*
X365502Y673008D02*
D03*
Y687008D02*
D03*
D62*
X536308Y190008D02*
D03*
X522308D02*
D03*
X420446D02*
D03*
X434446D02*
D03*
X488000D02*
D03*
X502000D02*
D03*
X385000D02*
D03*
X399000D02*
D03*
X677000Y595000D02*
D03*
X691000D02*
D03*
X677000Y452000D02*
D03*
X691000D02*
D03*
X677000Y311000D02*
D03*
X691000D02*
D03*
X677000Y878000D02*
D03*
X691000D02*
D03*
X677000Y736000D02*
D03*
X691000D02*
D03*
D63*
X415130Y577012D02*
D03*
Y549072D02*
D03*
X270000Y660000D02*
D03*
Y687940D02*
D03*
D64*
X169287Y239085D02*
D03*
Y217495D02*
D03*
X300028Y223547D02*
D03*
Y201957D02*
D03*
D65*
X190610Y216339D02*
D03*
Y231339D02*
D03*
X189800Y181949D02*
D03*
Y196949D02*
D03*
X320000Y201949D02*
D03*
Y216949D02*
D03*
X175000Y196949D02*
D03*
Y181949D02*
D03*
X160000D02*
D03*
Y196949D02*
D03*
D66*
X205000Y197253D02*
D03*
Y216253D02*
D03*
X233000D02*
D03*
Y206753D02*
D03*
Y197253D02*
D03*
D67*
X264000Y219999D02*
D03*
Y197999D02*
D03*
D68*
X95344Y38608D02*
D03*
D69*
X130904Y84328D02*
D03*
X59784D02*
D03*
D70*
X95000Y753403D02*
D03*
Y334601D02*
D03*
D71*
Y781131D02*
D03*
Y864316D02*
D03*
X69600Y767373D02*
D03*
Y850557D02*
D03*
Y795101D02*
D03*
Y822829D02*
D03*
X95000Y362329D02*
D03*
Y445514D02*
D03*
X69600Y348571D02*
D03*
Y431755D02*
D03*
Y376299D02*
D03*
Y404027D02*
D03*
D72*
X95000Y808856D02*
D03*
Y836586D02*
D03*
Y390054D02*
D03*
Y417784D02*
D03*
D73*
X82300Y683764D02*
D03*
Y933742D02*
D03*
Y264962D02*
D03*
Y514940D02*
D03*
D74*
X830284Y252850D02*
D03*
Y90250D02*
D03*
X830600Y259200D02*
D03*
X763980Y499200D02*
D03*
Y657200D02*
D03*
X830600Y897200D02*
D03*
D75*
X865884Y108050D02*
D03*
Y235050D02*
D03*
D76*
X840484Y207250D02*
D03*
X822684Y197050D02*
D03*
X840484Y186850D02*
D03*
X822684Y176650D02*
D03*
X840484Y166450D02*
D03*
X822684Y156250D02*
D03*
X840484Y146050D02*
D03*
X822684Y135850D02*
D03*
X774584Y240150D02*
D03*
Y217250D02*
D03*
Y125850D02*
D03*
Y102950D02*
D03*
X511862Y680000D02*
D03*
Y660000D02*
D03*
Y640000D02*
D03*
Y620000D02*
D03*
Y600000D02*
D03*
Y580000D02*
D03*
Y560000D02*
D03*
Y540000D02*
D03*
Y520000D02*
D03*
Y500000D02*
D03*
Y480000D02*
D03*
Y460000D02*
D03*
Y440000D02*
D03*
Y400000D02*
D03*
Y380000D02*
D03*
Y360000D02*
D03*
Y340000D02*
D03*
Y320000D02*
D03*
Y740000D02*
D03*
Y760000D02*
D03*
Y780000D02*
D03*
Y800000D02*
D03*
X197862Y800000D02*
D03*
Y780000D02*
D03*
Y760000D02*
D03*
Y740000D02*
D03*
Y300000D02*
D03*
Y320000D02*
D03*
Y340000D02*
D03*
Y360000D02*
D03*
Y380000D02*
D03*
Y400000D02*
D03*
Y420000D02*
D03*
Y440000D02*
D03*
Y460000D02*
D03*
Y480000D02*
D03*
Y500000D02*
D03*
Y520000D02*
D03*
Y540000D02*
D03*
Y560000D02*
D03*
Y580000D02*
D03*
Y600000D02*
D03*
Y620000D02*
D03*
Y640000D02*
D03*
Y660000D02*
D03*
Y680000D02*
D03*
X41750Y148500D02*
D03*
Y169500D02*
D03*
D77*
X840780Y377114D02*
D03*
X823000Y366700D02*
D03*
X840780Y356714D02*
D03*
X823000Y346300D02*
D03*
X840780Y336314D02*
D03*
X823000Y325900D02*
D03*
X840780Y315914D02*
D03*
X823000Y305500D02*
D03*
X840780Y535114D02*
D03*
X823000Y524700D02*
D03*
X840780Y514714D02*
D03*
X823000Y504300D02*
D03*
X840780Y494314D02*
D03*
X823000Y483900D02*
D03*
X840780Y473914D02*
D03*
X823000Y463500D02*
D03*
X840780Y693114D02*
D03*
X823000Y682700D02*
D03*
X840780Y672714D02*
D03*
X823000Y662300D02*
D03*
X840780Y652314D02*
D03*
X823000Y641900D02*
D03*
X840780Y631914D02*
D03*
X823000Y621500D02*
D03*
Y779500D02*
D03*
X840780Y789914D02*
D03*
X823000Y799900D02*
D03*
X840780Y810314D02*
D03*
X823000Y820300D02*
D03*
X840780Y830714D02*
D03*
X823000Y840700D02*
D03*
X840780Y851114D02*
D03*
D78*
X775030Y410014D02*
D03*
Y387114D02*
D03*
X775000Y295500D02*
D03*
Y272600D02*
D03*
X775030Y568014D02*
D03*
Y545114D02*
D03*
X775000Y453500D02*
D03*
Y430600D02*
D03*
X775030Y726014D02*
D03*
Y703114D02*
D03*
X775000Y611500D02*
D03*
Y588600D02*
D03*
Y746600D02*
D03*
Y769500D02*
D03*
X775030Y861114D02*
D03*
Y884014D02*
D03*
X177640Y868096D02*
D03*
X203040D02*
D03*
X228440D02*
D03*
X253840D02*
D03*
X279240D02*
D03*
X304640D02*
D03*
X330040D02*
D03*
X355440D02*
D03*
X380840D02*
D03*
X406240D02*
D03*
X431640D02*
D03*
X457040D02*
D03*
X482440D02*
D03*
X507840D02*
D03*
X533240D02*
D03*
X469740Y247574D02*
D03*
X444340D02*
D03*
X418940D02*
D03*
X393540D02*
D03*
X368140D02*
D03*
D79*
X866200Y878700D02*
D03*
Y277700D02*
D03*
D80*
X152240Y868096D02*
D03*
X342740Y247574D02*
D03*
D81*
X511862Y420000D02*
D03*
Y700000D02*
D03*
Y720000D02*
D03*
X197862Y720000D02*
D03*
Y700000D02*
D03*
X650000Y270000D02*
D03*
Y250000D02*
D03*
Y230000D02*
D03*
Y210000D02*
D03*
Y190000D02*
D03*
X700000D02*
D03*
Y210000D02*
D03*
Y230000D02*
D03*
Y250000D02*
D03*
Y270000D02*
D03*
Y290000D02*
D03*
X650000Y411750D02*
D03*
Y391750D02*
D03*
Y371750D02*
D03*
Y351750D02*
D03*
Y331750D02*
D03*
X700000D02*
D03*
Y351750D02*
D03*
Y371750D02*
D03*
Y391750D02*
D03*
Y411750D02*
D03*
Y431750D02*
D03*
X650000Y553500D02*
D03*
Y533500D02*
D03*
Y513500D02*
D03*
Y493500D02*
D03*
Y473500D02*
D03*
X700000D02*
D03*
Y493500D02*
D03*
Y513500D02*
D03*
Y533500D02*
D03*
Y553500D02*
D03*
Y573500D02*
D03*
X650000Y695250D02*
D03*
Y675250D02*
D03*
Y655250D02*
D03*
Y635250D02*
D03*
Y615250D02*
D03*
X700000D02*
D03*
Y635250D02*
D03*
Y655250D02*
D03*
Y675250D02*
D03*
Y695250D02*
D03*
Y715250D02*
D03*
X650000Y837000D02*
D03*
Y817000D02*
D03*
Y797000D02*
D03*
Y777000D02*
D03*
Y757000D02*
D03*
X700000D02*
D03*
Y777000D02*
D03*
Y797000D02*
D03*
Y817000D02*
D03*
Y837000D02*
D03*
Y857000D02*
D03*
D82*
X511862Y300000D02*
D03*
D83*
X650000Y290000D02*
D03*
Y431750D02*
D03*
Y573500D02*
D03*
Y715250D02*
D03*
Y857000D02*
D03*
D84*
X15000Y206816D02*
D03*
X33000Y191816D02*
D03*
Y221816D02*
D03*
X15000Y624316D02*
D03*
X33000Y609316D02*
D03*
Y639316D02*
D03*
D85*
X76000Y593000D02*
D03*
X661000Y936000D02*
D03*
X666000Y52000D02*
D03*
X186000Y51000D02*
D03*
X151000Y934742D02*
D03*
M02*
