%FSLAX44Y44*%
%MOMM*%
G71*
G01*
G75*
G04 Layer_Physical_Order=2*
G04 Layer_Color=16711680*
%ADD10R,0.6000X2.2000*%
%ADD11R,2.0000X1.5000*%
%ADD12R,0.8000X0.6000*%
%ADD13R,0.6000X0.8000*%
%ADD14R,1.2700X1.5240*%
%ADD15R,1.2700X1.2700*%
%ADD16R,0.8000X0.9000*%
%ADD17R,0.8000X0.4000*%
%ADD18O,3.3000X1.5000*%
%ADD19C,0.2540*%
%ADD20C,0.7620*%
%ADD21C,0.5080*%
%ADD22R,2.6590X2.6992*%
%ADD23R,3.6830X1.3208*%
%ADD24O,5.0800X2.5400*%
%ADD25O,2.5400X5.0800*%
%ADD26P,1.7046X8X112.5*%
%ADD27C,1.5748*%
%ADD28C,1.5750*%
%ADD29O,3.0000X5.0000*%
%ADD30C,2.5000*%
%ADD31C,3.2500*%
%ADD32C,1.2000*%
%ADD33O,1.5000X1.2000*%
%ADD34C,1.5000*%
%ADD35C,3.2000*%
%ADD36R,1.5000X1.5000*%
%ADD37C,1.3000*%
%ADD38R,1.2000X1.2000*%
%ADD39R,1.3000X1.3000*%
%ADD40O,0.9000X1.4000*%
%ADD41C,4.0000*%
%ADD42C,0.7112*%
%ADD43C,0.8000*%
%ADD44C,1.2700*%
%ADD45C,1.0160*%
%ADD46R,2.6082X2.7000*%
%ADD47C,1.1000*%
G36*
X896374Y900000D02*
X670000D01*
Y887899D01*
X613928D01*
X612441Y887603D01*
X611181Y886761D01*
X567878Y843458D01*
X567276Y843577D01*
X564897Y843104D01*
X562881Y841757D01*
X561534Y839741D01*
X561061Y837362D01*
X561534Y834984D01*
X562881Y832967D01*
X564897Y831620D01*
X567276Y831147D01*
X569655Y831620D01*
X571671Y832967D01*
X573018Y834984D01*
X573491Y837362D01*
X573372Y837964D01*
X615537Y880129D01*
X670000D01*
Y729899D01*
X627750D01*
X627409Y730409D01*
X625392Y731756D01*
X623014Y732229D01*
X620635Y731756D01*
X618619Y730409D01*
X617272Y728392D01*
X616799Y726014D01*
X617272Y723635D01*
X618619Y721619D01*
X620635Y720272D01*
X623014Y719799D01*
X625392Y720272D01*
X627409Y721619D01*
X627750Y722129D01*
X640960D01*
Y711704D01*
X632221Y702965D01*
X611896D01*
X610409Y702669D01*
X609149Y701827D01*
X596173Y688851D01*
X595331Y687591D01*
X595149Y686673D01*
X593885Y686798D01*
Y764391D01*
X601529Y772035D01*
X629471D01*
X641472Y760034D01*
X641193Y759360D01*
X640882Y757000D01*
X641193Y754640D01*
X642104Y752441D01*
X643553Y750553D01*
X645441Y749103D01*
X647640Y748193D01*
X650000Y747882D01*
X652360Y748193D01*
X654559Y749103D01*
X656447Y750553D01*
X657896Y752441D01*
X658807Y754640D01*
X659118Y757000D01*
X658807Y759360D01*
X657896Y761559D01*
X656447Y763447D01*
X654559Y764896D01*
X652360Y765807D01*
X650000Y766118D01*
X647640Y765807D01*
X646966Y765528D01*
X643492Y769002D01*
X644329Y769957D01*
X645441Y769103D01*
X647640Y768193D01*
X650000Y767882D01*
X652360Y768193D01*
X654559Y769103D01*
X656447Y770553D01*
X657896Y772441D01*
X658807Y774640D01*
X659118Y777000D01*
X658807Y779360D01*
X657896Y781559D01*
X656447Y783447D01*
X654559Y784896D01*
X652360Y785807D01*
X650000Y786118D01*
X647640Y785807D01*
X645441Y784896D01*
X644329Y784043D01*
X643492Y784998D01*
X646966Y788472D01*
X647640Y788193D01*
X650000Y787882D01*
X652360Y788193D01*
X654559Y789103D01*
X656447Y790553D01*
X657896Y792441D01*
X658807Y794640D01*
X659118Y797000D01*
X658807Y799360D01*
X657896Y801559D01*
X656447Y803447D01*
X654559Y804896D01*
X652360Y805807D01*
X650000Y806118D01*
X647640Y805807D01*
X645441Y804896D01*
X643553Y803447D01*
X642104Y801559D01*
X641193Y799360D01*
X640882Y797000D01*
X641193Y794640D01*
X641472Y793966D01*
X632391Y784885D01*
X597816D01*
X596329Y784589D01*
X595069Y783747D01*
X582173Y770851D01*
X581331Y769591D01*
X581035Y768104D01*
Y678713D01*
X538207Y635885D01*
X521471D01*
X520007Y637348D01*
X520182Y637771D01*
X520476Y640000D01*
X520182Y642229D01*
X519322Y644307D01*
X517953Y646091D01*
X516169Y647460D01*
X514091Y648320D01*
X511862Y648614D01*
X509633Y648320D01*
X507555Y647460D01*
X505771Y646091D01*
X504402Y644307D01*
X503542Y642229D01*
X503248Y640000D01*
X503542Y637771D01*
X504402Y635693D01*
X505771Y633909D01*
X507555Y632540D01*
X509633Y631680D01*
X511862Y631386D01*
X514091Y631680D01*
X514514Y631855D01*
X516095Y630273D01*
X516035Y629667D01*
X514514Y628145D01*
X514091Y628320D01*
X511862Y628614D01*
X509633Y628320D01*
X507555Y627460D01*
X505771Y626091D01*
X504402Y624307D01*
X503542Y622229D01*
X503248Y620000D01*
X503542Y617771D01*
X504402Y615693D01*
X505771Y613909D01*
X507555Y612540D01*
X509633Y611680D01*
X511862Y611386D01*
X514091Y611680D01*
X516169Y612540D01*
X517953Y613909D01*
X519322Y615693D01*
X520182Y617771D01*
X520476Y620000D01*
X520202Y622080D01*
X520418Y622327D01*
X522128Y623035D01*
X541920D01*
X543407Y623331D01*
X544667Y624173D01*
X592747Y672253D01*
X593589Y673513D01*
X593772Y674431D01*
X595035Y674306D01*
Y622529D01*
X568391Y595885D01*
X521471D01*
X520007Y597348D01*
X520182Y597771D01*
X520476Y600000D01*
X520182Y602229D01*
X519322Y604307D01*
X517953Y606091D01*
X516169Y607460D01*
X514091Y608320D01*
X511862Y608614D01*
X509633Y608320D01*
X507555Y607460D01*
X505771Y606091D01*
X504402Y604307D01*
X503542Y602229D01*
X503248Y600000D01*
X503542Y597771D01*
X504402Y595693D01*
X505771Y593909D01*
X507555Y592540D01*
X509633Y591680D01*
X511862Y591386D01*
X514091Y591680D01*
X514514Y591855D01*
X516095Y590273D01*
X516035Y589667D01*
X514514Y588145D01*
X514091Y588320D01*
X511862Y588614D01*
X509633Y588320D01*
X507555Y587460D01*
X505771Y586091D01*
X504402Y584307D01*
X503542Y582229D01*
X503248Y580000D01*
X503542Y577771D01*
X504402Y575693D01*
X505771Y573909D01*
X507555Y572540D01*
X509633Y571680D01*
X511862Y571386D01*
X514091Y571680D01*
X516169Y572540D01*
X517953Y573909D01*
X519322Y575693D01*
X520182Y577771D01*
X520476Y580000D01*
X520202Y582080D01*
X520418Y582327D01*
X522128Y583035D01*
X572104D01*
X573591Y583331D01*
X574851Y584173D01*
X604862Y614184D01*
X606035Y613698D01*
Y609279D01*
X553721Y556965D01*
X522128D01*
X520418Y557673D01*
X520202Y557920D01*
X520476Y560000D01*
X520182Y562229D01*
X519322Y564307D01*
X517953Y566091D01*
X516169Y567460D01*
X514091Y568320D01*
X511862Y568614D01*
X509633Y568320D01*
X507555Y567460D01*
X505771Y566091D01*
X504402Y564307D01*
X503542Y562229D01*
X503248Y560000D01*
X503542Y557771D01*
X504402Y555693D01*
X505771Y553909D01*
X507555Y552540D01*
X509633Y551680D01*
X511862Y551386D01*
X514091Y551680D01*
X514514Y551855D01*
X516035Y550333D01*
X516095Y549727D01*
X514514Y548145D01*
X514091Y548320D01*
X511862Y548614D01*
X509633Y548320D01*
X507555Y547460D01*
X505771Y546091D01*
X504402Y544307D01*
X503542Y542229D01*
X503248Y540000D01*
X503542Y537771D01*
X504402Y535693D01*
X505771Y533909D01*
X507555Y532540D01*
X509633Y531680D01*
X511862Y531386D01*
X514091Y531680D01*
X516169Y532540D01*
X517953Y533909D01*
X519322Y535693D01*
X520182Y537771D01*
X520476Y540000D01*
X520182Y542229D01*
X520007Y542652D01*
X521471Y544115D01*
X557434D01*
X558921Y544411D01*
X560181Y545253D01*
X617747Y602819D01*
X618589Y604079D01*
X618885Y605566D01*
Y625141D01*
X624359Y630615D01*
X633391D01*
X643013Y620994D01*
X642104Y619809D01*
X641193Y617610D01*
X640882Y615250D01*
X641193Y612890D01*
X642104Y610691D01*
X643553Y608803D01*
X645441Y607354D01*
X647640Y606443D01*
X650000Y606132D01*
X652360Y606443D01*
X654559Y607354D01*
X656447Y608803D01*
X657896Y610691D01*
X658807Y612890D01*
X659118Y615250D01*
X658807Y617610D01*
X657896Y619809D01*
X656447Y621697D01*
X654559Y623146D01*
X652360Y624057D01*
X650801Y624263D01*
X650130Y625341D01*
X650418Y626187D01*
X652360Y626443D01*
X654559Y627354D01*
X656447Y628803D01*
X657896Y630691D01*
X658807Y632890D01*
X659118Y635250D01*
X658807Y637610D01*
X657896Y639809D01*
X656447Y641697D01*
X654559Y643146D01*
X652360Y644057D01*
X650000Y644368D01*
X647640Y644057D01*
X645441Y643146D01*
X644329Y642293D01*
X643492Y643248D01*
X646966Y646722D01*
X647640Y646443D01*
X650000Y646132D01*
X652360Y646443D01*
X654559Y647354D01*
X656447Y648803D01*
X657896Y650691D01*
X658807Y652890D01*
X659118Y655250D01*
X658807Y657610D01*
X657896Y659809D01*
X656447Y661697D01*
X654559Y663146D01*
X652360Y664057D01*
X650000Y664368D01*
X647640Y664057D01*
X645441Y663146D01*
X643553Y661697D01*
X642104Y659809D01*
X641193Y657610D01*
X640882Y655250D01*
X641193Y652890D01*
X641472Y652216D01*
X632721Y643465D01*
X620646D01*
X619159Y643169D01*
X617899Y642327D01*
X609058Y633486D01*
X607885Y633972D01*
Y682391D01*
X615609Y690115D01*
X629641D01*
X641472Y678284D01*
X641193Y677610D01*
X640882Y675250D01*
X641193Y672890D01*
X642104Y670691D01*
X643553Y668803D01*
X645441Y667354D01*
X647640Y666443D01*
X650000Y666132D01*
X652360Y666443D01*
X654559Y667354D01*
X656447Y668803D01*
X657896Y670691D01*
X658807Y672890D01*
X659118Y675250D01*
X658807Y677610D01*
X657896Y679809D01*
X656447Y681697D01*
X654559Y683146D01*
X652360Y684057D01*
X650000Y684368D01*
X647640Y684057D01*
X646966Y683778D01*
X643492Y687252D01*
X644329Y688207D01*
X645441Y687354D01*
X647640Y686443D01*
X650000Y686132D01*
X652360Y686443D01*
X654559Y687354D01*
X656447Y688803D01*
X657896Y690691D01*
X658807Y692890D01*
X659118Y695250D01*
X658807Y697610D01*
X657896Y699809D01*
X656447Y701697D01*
X654559Y703146D01*
X652360Y704057D01*
X650000Y704368D01*
X647640Y704057D01*
X645441Y703146D01*
X644329Y702293D01*
X643492Y703248D01*
X646454Y706210D01*
X659040D01*
Y722129D01*
X670000D01*
Y594885D01*
X631736D01*
X631395Y595395D01*
X629379Y596742D01*
X627000Y597215D01*
X624622Y596742D01*
X622605Y595395D01*
X621258Y593378D01*
X620785Y591000D01*
X621258Y588621D01*
X622605Y586605D01*
X624622Y585258D01*
X627000Y584785D01*
X629379Y585258D01*
X631395Y586605D01*
X631736Y587115D01*
X670000D01*
Y462885D01*
X610736D01*
X610395Y463395D01*
X608378Y464742D01*
X606000Y465215D01*
X603621Y464742D01*
X601605Y463395D01*
X600258Y461379D01*
X599785Y459000D01*
X600258Y456622D01*
X601605Y454605D01*
X603621Y453258D01*
X606000Y452785D01*
X608378Y453258D01*
X610395Y454605D01*
X610736Y455115D01*
X670000D01*
Y314885D01*
X618263D01*
X617664Y315664D01*
X616298Y316713D01*
X614707Y317372D01*
X613000Y317596D01*
X611293Y317372D01*
X609702Y316713D01*
X608336Y315664D01*
X607287Y314298D01*
X606628Y312707D01*
X606404Y311000D01*
X606628Y309293D01*
X607287Y307702D01*
X608336Y306336D01*
X609702Y305287D01*
X611293Y304628D01*
X613000Y304404D01*
X614707Y304628D01*
X616298Y305287D01*
X617664Y306336D01*
X618263Y307115D01*
X670000D01*
X670000Y90450D01*
X669800Y90250D01*
X670050Y90000D01*
X670450Y90000D01*
D01*
X670450Y90000D01*
D01*
X670450D01*
Y90000D01*
D01*
D01*
D01*
X860657D01*
X862200Y89532D01*
X865884Y89169D01*
X869567Y89532D01*
X871111Y90000D01*
X896374D01*
Y3626D01*
X3626D01*
Y986374D01*
X896374D01*
Y900000D01*
D02*
G37*
%LPC*%
G36*
X95000Y400559D02*
X92281Y400201D01*
X89748Y399152D01*
X87572Y397482D01*
X85903Y395307D01*
X84853Y392773D01*
X84495Y390054D01*
X84853Y387335D01*
X85903Y384802D01*
X87572Y382626D01*
X89748Y380957D01*
X92281Y379907D01*
X95000Y379549D01*
X97719Y379907D01*
X100253Y380957D01*
X102428Y382626D01*
X104098Y384802D01*
X105147Y387335D01*
X105505Y390054D01*
X105147Y392773D01*
X104098Y395307D01*
X102428Y397482D01*
X100253Y399152D01*
X97719Y400201D01*
X95000Y400559D01*
D02*
G37*
G36*
X511862Y408614D02*
X509633Y408320D01*
X507555Y407460D01*
X505771Y406091D01*
X504402Y404307D01*
X503542Y402229D01*
X503248Y400000D01*
X503542Y397771D01*
X504402Y395693D01*
X505771Y393909D01*
X507555Y392540D01*
X509633Y391680D01*
X511862Y391386D01*
X514091Y391680D01*
X514514Y391855D01*
X516035Y390333D01*
X516095Y389727D01*
X514514Y388145D01*
X514091Y388320D01*
X511862Y388614D01*
X509633Y388320D01*
X507555Y387460D01*
X505771Y386091D01*
X504402Y384307D01*
X503542Y382229D01*
X503248Y380000D01*
X503542Y377771D01*
X504402Y375693D01*
X505771Y373909D01*
X507555Y372540D01*
X509633Y371680D01*
X511862Y371386D01*
X514091Y371680D01*
X516169Y372540D01*
X517953Y373909D01*
X519322Y375693D01*
X520182Y377771D01*
X520476Y380000D01*
X520182Y382229D01*
X520007Y382652D01*
X521471Y384115D01*
X546641D01*
X583753Y347003D01*
X585013Y346161D01*
X586500Y345865D01*
X630391D01*
X641472Y334784D01*
X641193Y334110D01*
X640882Y331750D01*
X641193Y329390D01*
X642104Y327191D01*
X643553Y325303D01*
X645441Y323854D01*
X647640Y322943D01*
X650000Y322632D01*
X652360Y322943D01*
X654559Y323854D01*
X656447Y325303D01*
X657896Y327191D01*
X658807Y329390D01*
X659118Y331750D01*
X658807Y334110D01*
X657896Y336309D01*
X656447Y338197D01*
X654559Y339646D01*
X652360Y340557D01*
X650000Y340868D01*
X647640Y340557D01*
X646966Y340278D01*
X643492Y343752D01*
X644329Y344707D01*
X645441Y343854D01*
X647640Y342943D01*
X650000Y342632D01*
X652360Y342943D01*
X654559Y343854D01*
X656447Y345303D01*
X657896Y347191D01*
X658807Y349390D01*
X659118Y351750D01*
X658807Y354110D01*
X657896Y356309D01*
X656447Y358197D01*
X654559Y359646D01*
X652360Y360557D01*
X650000Y360868D01*
X647640Y360557D01*
X645441Y359646D01*
X644329Y358793D01*
X643492Y359748D01*
X646966Y363222D01*
X647640Y362943D01*
X650000Y362632D01*
X652360Y362943D01*
X654559Y363854D01*
X656447Y365303D01*
X657896Y367191D01*
X658807Y369390D01*
X659118Y371750D01*
X658807Y374110D01*
X657896Y376309D01*
X656447Y378197D01*
X654559Y379646D01*
X652360Y380557D01*
X650000Y380868D01*
X647640Y380557D01*
X645441Y379646D01*
X643553Y378197D01*
X642104Y376309D01*
X641193Y374110D01*
X640882Y371750D01*
X641193Y369390D01*
X641472Y368716D01*
X631471Y358715D01*
X590213D01*
X553101Y395827D01*
X551841Y396669D01*
X550354Y396965D01*
X522128D01*
X520418Y397673D01*
X520202Y397920D01*
X520476Y400000D01*
X520182Y402229D01*
X519322Y404307D01*
X517953Y406091D01*
X516169Y407460D01*
X514091Y408320D01*
X511862Y408614D01*
D02*
G37*
G36*
X197862Y408614D02*
X195633Y408320D01*
X193555Y407460D01*
X191771Y406091D01*
X190402Y404307D01*
X189542Y402229D01*
X189248Y400000D01*
X189542Y397771D01*
X190402Y395693D01*
X191771Y393909D01*
X193555Y392540D01*
X195633Y391680D01*
X197862Y391386D01*
X200091Y391680D01*
X202169Y392540D01*
X203953Y393909D01*
X205322Y395693D01*
X206182Y397771D01*
X206476Y400000D01*
X206182Y402229D01*
X205322Y404307D01*
X203953Y406091D01*
X202169Y407460D01*
X200091Y408320D01*
X197862Y408614D01*
D02*
G37*
G36*
X406240Y878223D02*
X403619Y877878D01*
X401177Y876866D01*
X399079Y875257D01*
X397470Y873159D01*
X396458Y870717D01*
X396113Y868096D01*
X396458Y865475D01*
X397470Y863033D01*
X399079Y860935D01*
X401177Y859326D01*
X402355Y858838D01*
Y364736D01*
X401845Y364395D01*
X400498Y362378D01*
X400025Y360000D01*
X400498Y357621D01*
X401845Y355605D01*
X403862Y354258D01*
X406240Y353784D01*
X408619Y354258D01*
X410635Y355605D01*
X411982Y357621D01*
X412455Y360000D01*
X411982Y362378D01*
X410635Y364395D01*
X410125Y364736D01*
Y858838D01*
X411303Y859326D01*
X413401Y860935D01*
X415010Y863033D01*
X416022Y865475D01*
X416367Y868096D01*
X416022Y870717D01*
X415010Y873159D01*
X413401Y875257D01*
X411303Y876866D01*
X408861Y877878D01*
X406240Y878223D01*
D02*
G37*
G36*
X95000Y372833D02*
X92282Y372475D01*
X89748Y371426D01*
X87573Y369756D01*
X85904Y367581D01*
X84854Y365048D01*
X84496Y362329D01*
X84854Y359610D01*
X85904Y357077D01*
X87573Y354902D01*
X89748Y353232D01*
X92282Y352183D01*
X95000Y351825D01*
X97719Y352183D01*
X100252Y353232D01*
X102428Y354902D01*
X104097Y357077D01*
X105146Y359610D01*
X105504Y362329D01*
X105146Y365048D01*
X104097Y367581D01*
X102428Y369756D01*
X100252Y371426D01*
X97719Y372475D01*
X95000Y372833D01*
D02*
G37*
G36*
X197862Y388614D02*
X195633Y388320D01*
X193555Y387460D01*
X191771Y386091D01*
X190402Y384307D01*
X189542Y382229D01*
X189248Y380000D01*
X189542Y377771D01*
X190402Y375693D01*
X191771Y373909D01*
X193555Y372540D01*
X195633Y371680D01*
X197862Y371386D01*
X200091Y371680D01*
X202169Y372540D01*
X203953Y373909D01*
X205322Y375693D01*
X206182Y377771D01*
X206476Y380000D01*
X206182Y382229D01*
X205322Y384307D01*
X203953Y386091D01*
X202169Y387460D01*
X200091Y388320D01*
X197862Y388614D01*
D02*
G37*
G36*
X69600Y386803D02*
X66882Y386445D01*
X64348Y385396D01*
X62173Y383726D01*
X60504Y381551D01*
X59454Y379018D01*
X59096Y376299D01*
X59454Y373580D01*
X60504Y371047D01*
X62173Y368872D01*
X64348Y367202D01*
X66882Y366153D01*
X69600Y365795D01*
X72319Y366153D01*
X74852Y367202D01*
X77028Y368872D01*
X78697Y371047D01*
X79746Y373580D01*
X80104Y376299D01*
X79746Y379018D01*
X78697Y381551D01*
X77028Y383726D01*
X74852Y385396D01*
X72319Y386445D01*
X69600Y386803D01*
D02*
G37*
G36*
Y442259D02*
X66882Y441901D01*
X64348Y440852D01*
X62173Y439183D01*
X60504Y437007D01*
X59454Y434474D01*
X59096Y431755D01*
X59454Y429037D01*
X60504Y426503D01*
X62173Y424328D01*
X64348Y422659D01*
X66882Y421609D01*
X69600Y421251D01*
X72319Y421609D01*
X74852Y422659D01*
X77028Y424328D01*
X78697Y426503D01*
X79746Y429037D01*
X80104Y431755D01*
X79746Y434474D01*
X78697Y437007D01*
X77028Y439183D01*
X74852Y440852D01*
X72319Y441901D01*
X69600Y442259D01*
D02*
G37*
G36*
X511862Y448614D02*
X509633Y448320D01*
X507555Y447460D01*
X505771Y446091D01*
X504402Y444307D01*
X503542Y442229D01*
X503248Y440000D01*
X503542Y437771D01*
X504402Y435693D01*
X505771Y433909D01*
X507555Y432540D01*
X509633Y431680D01*
X511862Y431386D01*
X514091Y431680D01*
X514514Y431855D01*
X516035Y430333D01*
X516095Y429727D01*
X514131Y427763D01*
X513961Y427833D01*
X511862Y428109D01*
X509763Y427833D01*
X507807Y427023D01*
X506128Y425734D01*
X504839Y424055D01*
X504029Y422099D01*
X503753Y420000D01*
X504029Y417901D01*
X504839Y415945D01*
X506128Y414266D01*
X507807Y412977D01*
X509763Y412167D01*
X511862Y411891D01*
X513961Y412167D01*
X515917Y412977D01*
X517596Y414266D01*
X518885Y415945D01*
X519695Y417901D01*
X519971Y420000D01*
X519695Y422099D01*
X519625Y422269D01*
X521471Y424115D01*
X546641D01*
X564333Y406423D01*
X565593Y405581D01*
X567080Y405285D01*
X630971D01*
X641472Y394784D01*
X641193Y394110D01*
X640882Y391750D01*
X641193Y389390D01*
X642104Y387191D01*
X643553Y385303D01*
X645441Y383854D01*
X647640Y382943D01*
X650000Y382632D01*
X652360Y382943D01*
X654559Y383854D01*
X656447Y385303D01*
X657896Y387191D01*
X658807Y389390D01*
X659118Y391750D01*
X658807Y394110D01*
X657896Y396309D01*
X656447Y398197D01*
X654559Y399646D01*
X652360Y400557D01*
X650000Y400868D01*
X647640Y400557D01*
X646966Y400278D01*
X643492Y403752D01*
X644329Y404707D01*
X645441Y403854D01*
X647640Y402943D01*
X650000Y402632D01*
X652360Y402943D01*
X654559Y403854D01*
X656447Y405303D01*
X657896Y407191D01*
X658807Y409390D01*
X659118Y411750D01*
X658807Y414110D01*
X657896Y416309D01*
X656447Y418197D01*
X654559Y419646D01*
X652360Y420557D01*
X650000Y420868D01*
X647640Y420557D01*
X645441Y419646D01*
X644329Y418793D01*
X643492Y419748D01*
X646454Y422710D01*
X659040D01*
Y440790D01*
X640960D01*
Y428204D01*
X630891Y418135D01*
X570793D01*
X553101Y435827D01*
X551841Y436669D01*
X550354Y436965D01*
X522128D01*
X520418Y437673D01*
X520202Y437920D01*
X520476Y440000D01*
X520182Y442229D01*
X519322Y444307D01*
X517953Y446091D01*
X516169Y447460D01*
X514091Y448320D01*
X511862Y448614D01*
D02*
G37*
G36*
X197862Y448614D02*
X195633Y448320D01*
X193555Y447460D01*
X191771Y446091D01*
X190402Y444307D01*
X189542Y442229D01*
X189248Y440000D01*
X189542Y437771D01*
X190402Y435693D01*
X191771Y433909D01*
X193555Y432540D01*
X195633Y431680D01*
X197862Y431386D01*
X200091Y431680D01*
X202169Y432540D01*
X203953Y433909D01*
X205322Y435693D01*
X206182Y437771D01*
X206476Y440000D01*
X206182Y442229D01*
X205322Y444307D01*
X203953Y446091D01*
X202169Y447460D01*
X200091Y448320D01*
X197862Y448614D01*
D02*
G37*
G36*
X330040Y878223D02*
X327419Y877878D01*
X324977Y876866D01*
X322879Y875257D01*
X321270Y873159D01*
X320258Y870717D01*
X319913Y868096D01*
X320258Y865475D01*
X321270Y863033D01*
X322879Y860935D01*
X324977Y859326D01*
X326155Y858838D01*
Y424736D01*
X325645Y424395D01*
X324298Y422379D01*
X323825Y420000D01*
X324298Y417621D01*
X325645Y415605D01*
X327662Y414258D01*
X330040Y413784D01*
X332419Y414258D01*
X334435Y415605D01*
X335782Y417621D01*
X336255Y420000D01*
X335782Y422379D01*
X334435Y424395D01*
X333925Y424736D01*
Y858838D01*
X335103Y859326D01*
X337201Y860935D01*
X338810Y863033D01*
X339822Y865475D01*
X340167Y868096D01*
X339822Y870717D01*
X338810Y873159D01*
X337201Y875257D01*
X335103Y876866D01*
X332661Y877878D01*
X330040Y878223D01*
D02*
G37*
G36*
X69600Y414531D02*
X66882Y414173D01*
X64348Y413124D01*
X62173Y411455D01*
X60504Y409279D01*
X59454Y406746D01*
X59096Y404027D01*
X59454Y401309D01*
X60504Y398775D01*
X62173Y396600D01*
X64348Y394931D01*
X66882Y393881D01*
X69600Y393523D01*
X72319Y393881D01*
X74852Y394931D01*
X77028Y396600D01*
X78697Y398775D01*
X79746Y401309D01*
X80104Y404027D01*
X79746Y406746D01*
X78697Y409279D01*
X77028Y411455D01*
X74852Y413124D01*
X72319Y414173D01*
X69600Y414531D01*
D02*
G37*
G36*
X95000Y428289D02*
X92281Y427931D01*
X89748Y426882D01*
X87572Y425212D01*
X85903Y423037D01*
X84853Y420503D01*
X84495Y417784D01*
X84853Y415065D01*
X85903Y412532D01*
X87572Y410356D01*
X89748Y408687D01*
X92281Y407637D01*
X95000Y407279D01*
X97719Y407637D01*
X100253Y408687D01*
X102428Y410356D01*
X104098Y412532D01*
X105147Y415065D01*
X105505Y417784D01*
X105147Y420503D01*
X104098Y423037D01*
X102428Y425212D01*
X100253Y426882D01*
X97719Y427931D01*
X95000Y428289D01*
D02*
G37*
G36*
X197862Y428614D02*
X195633Y428320D01*
X193555Y427460D01*
X191771Y426091D01*
X190402Y424307D01*
X189542Y422229D01*
X189248Y420000D01*
X189542Y417771D01*
X190402Y415693D01*
X191771Y413909D01*
X193555Y412540D01*
X195633Y411680D01*
X197862Y411386D01*
X200091Y411680D01*
X202169Y412540D01*
X203953Y413909D01*
X205322Y415693D01*
X206182Y417771D01*
X206476Y420000D01*
X206182Y422229D01*
X205322Y424307D01*
X203953Y426091D01*
X202169Y427460D01*
X200091Y428320D01*
X197862Y428614D01*
D02*
G37*
G36*
Y368614D02*
X195633Y368320D01*
X193555Y367460D01*
X191771Y366091D01*
X190402Y364307D01*
X189542Y362229D01*
X189248Y360000D01*
X189542Y357771D01*
X190402Y355693D01*
X191771Y353909D01*
X193555Y352540D01*
X195633Y351680D01*
X197862Y351386D01*
X200091Y351680D01*
X202169Y352540D01*
X203953Y353909D01*
X205322Y355693D01*
X206182Y357771D01*
X206476Y360000D01*
X206182Y362229D01*
X205322Y364307D01*
X203953Y366091D01*
X202169Y367460D01*
X200091Y368320D01*
X197862Y368614D01*
D02*
G37*
G36*
X33000Y231417D02*
X31162Y231175D01*
X29450Y230465D01*
X27979Y229337D01*
X26851Y227866D01*
X26141Y226154D01*
X25899Y224316D01*
Y219316D01*
X26141Y217478D01*
X26851Y215766D01*
X27979Y214295D01*
X29450Y213167D01*
X31162Y212457D01*
X33000Y212215D01*
X34838Y212457D01*
X36550Y213167D01*
X38021Y214295D01*
X39149Y215766D01*
X39859Y217478D01*
X40101Y219316D01*
Y224316D01*
X39859Y226154D01*
X39149Y227866D01*
X38021Y229337D01*
X36550Y230465D01*
X34838Y231175D01*
X33000Y231417D01*
D02*
G37*
G36*
X511862Y328614D02*
X509633Y328320D01*
X507555Y327460D01*
X505771Y326091D01*
X504402Y324307D01*
X503542Y322229D01*
X503248Y320000D01*
X503542Y317771D01*
X504402Y315693D01*
X505771Y313909D01*
X507555Y312540D01*
X509633Y311680D01*
X511862Y311386D01*
X514091Y311680D01*
X514514Y311855D01*
X515523Y310845D01*
X515704Y310724D01*
X515829Y309460D01*
X514908Y308540D01*
X503322D01*
Y291460D01*
X520402D01*
Y303046D01*
X522471Y305115D01*
X548141D01*
X570285Y282971D01*
Y232646D01*
X570581Y231159D01*
X571423Y229899D01*
X596899Y204423D01*
X598159Y203581D01*
X598406Y203532D01*
X599646Y203285D01*
X631221D01*
X641472Y193034D01*
X641193Y192360D01*
X640882Y190000D01*
X641193Y187640D01*
X642104Y185441D01*
X643553Y183553D01*
X645441Y182104D01*
X647640Y181193D01*
X650000Y180882D01*
X652360Y181193D01*
X654559Y182104D01*
X656447Y183553D01*
X657896Y185441D01*
X658807Y187640D01*
X659118Y190000D01*
X658807Y192360D01*
X657896Y194559D01*
X656447Y196447D01*
X654559Y197896D01*
X652360Y198807D01*
X650000Y199118D01*
X647640Y198807D01*
X646966Y198528D01*
X643492Y202002D01*
X644329Y202957D01*
X645441Y202104D01*
X647640Y201193D01*
X650000Y200882D01*
X652360Y201193D01*
X654559Y202104D01*
X656447Y203553D01*
X657896Y205441D01*
X658807Y207640D01*
X659118Y210000D01*
X658807Y212360D01*
X657896Y214559D01*
X656447Y216447D01*
X654559Y217896D01*
X652360Y218807D01*
X650000Y219118D01*
X647640Y218807D01*
X645441Y217896D01*
X644329Y217043D01*
X643492Y217998D01*
X646966Y221472D01*
X647640Y221193D01*
X650000Y220882D01*
X652360Y221193D01*
X654559Y222104D01*
X656447Y223553D01*
X657896Y225441D01*
X658807Y227640D01*
X659118Y230000D01*
X658807Y232360D01*
X657896Y234559D01*
X656447Y236447D01*
X654559Y237896D01*
X652360Y238807D01*
X650000Y239118D01*
X647640Y238807D01*
X645441Y237896D01*
X643553Y236447D01*
X642104Y234559D01*
X641193Y232360D01*
X640882Y230000D01*
X641193Y227640D01*
X641472Y226966D01*
X630641Y216135D01*
X603359D01*
X583135Y236359D01*
Y286684D01*
X582888Y287924D01*
X582839Y288171D01*
X581997Y289431D01*
X554601Y316827D01*
X553341Y317669D01*
X551854Y317965D01*
X521171D01*
X520334Y318920D01*
X520476Y320000D01*
X520182Y322229D01*
X519322Y324307D01*
X517953Y326091D01*
X516169Y327460D01*
X514091Y328320D01*
X511862Y328614D01*
D02*
G37*
G36*
X444340Y257701D02*
X441719Y257356D01*
X439277Y256344D01*
X437179Y254735D01*
X435570Y252637D01*
X434558Y250195D01*
X434213Y247574D01*
X434558Y244953D01*
X435570Y242511D01*
X437179Y240413D01*
X439277Y238804D01*
X441719Y237792D01*
X444340Y237447D01*
X446961Y237792D01*
X449403Y238804D01*
X451501Y240413D01*
X453110Y242511D01*
X454122Y244953D01*
X454467Y247574D01*
X454122Y250195D01*
X453110Y252637D01*
X451501Y254735D01*
X449403Y256344D01*
X446961Y257356D01*
X444340Y257701D01*
D02*
G37*
G36*
X492092Y603044D02*
X489614Y602552D01*
X487514Y601148D01*
X486922Y600556D01*
X485518Y598456D01*
X485026Y595978D01*
Y204750D01*
X485518Y202272D01*
X486922Y200172D01*
X489022Y198768D01*
X491500Y198276D01*
X493978Y198768D01*
X496078Y200172D01*
X497482Y202272D01*
X497974Y204750D01*
Y593944D01*
X498074Y594092D01*
X498566Y596570D01*
X498074Y599048D01*
X496670Y601148D01*
X494570Y602552D01*
X492092Y603044D01*
D02*
G37*
G36*
X162280Y878136D02*
X142200D01*
Y858056D01*
X145766D01*
Y789460D01*
X123422Y767116D01*
X122018Y765016D01*
X121526Y762538D01*
Y231444D01*
X121009Y231341D01*
X120169Y230780D01*
X119607Y229940D01*
X119410Y228949D01*
Y201949D01*
X119607Y200958D01*
X119937Y200464D01*
Y107688D01*
X118171Y105536D01*
X116756Y102888D01*
X115884Y100016D01*
X115590Y97028D01*
Y71628D01*
X115884Y68640D01*
X116756Y65768D01*
X118171Y63120D01*
X120075Y60799D01*
X122396Y58895D01*
X125043Y57480D01*
X127916Y56609D01*
X130904Y56314D01*
X133891Y56609D01*
X136764Y57480D01*
X139412Y58895D01*
X141732Y60799D01*
X143637Y63120D01*
X145052Y65768D01*
X145923Y68640D01*
X146218Y71628D01*
Y97028D01*
X145923Y100016D01*
X145052Y102888D01*
X143637Y105536D01*
X141732Y107857D01*
X139412Y109761D01*
X137871Y110585D01*
Y199359D01*
X148082D01*
X149073Y199556D01*
X149913Y200118D01*
X150475Y200958D01*
X150672Y201949D01*
Y214215D01*
X150742Y214320D01*
X151215Y216699D01*
X150742Y219077D01*
X150672Y219183D01*
Y228949D01*
X150475Y229940D01*
X149913Y230780D01*
X149073Y231341D01*
X148082Y231539D01*
X134474D01*
Y759856D01*
X156818Y782200D01*
X158222Y784301D01*
X158714Y786778D01*
Y858056D01*
X162280D01*
Y878136D01*
D02*
G37*
G36*
X41750Y157114D02*
X39521Y156820D01*
X37443Y155960D01*
X35659Y154591D01*
X34290Y152807D01*
X33430Y150729D01*
X33136Y148500D01*
X33430Y146271D01*
X34290Y144193D01*
X35659Y142409D01*
X37443Y141040D01*
X39521Y140180D01*
X41750Y139886D01*
X43979Y140180D01*
X46057Y141040D01*
X47841Y142409D01*
X49210Y144193D01*
X50070Y146271D01*
X50364Y148500D01*
X50070Y150729D01*
X49210Y152807D01*
X47841Y154591D01*
X46057Y155960D01*
X43979Y156820D01*
X41750Y157114D01*
D02*
G37*
G36*
Y178114D02*
X39521Y177820D01*
X37443Y176960D01*
X35659Y175591D01*
X34290Y173807D01*
X33430Y171729D01*
X33136Y169500D01*
X33430Y167271D01*
X34290Y165193D01*
X35659Y163409D01*
X37443Y162040D01*
X39521Y161180D01*
X41750Y160886D01*
X43979Y161180D01*
X46057Y162040D01*
X47841Y163409D01*
X49210Y165193D01*
X50070Y167271D01*
X50364Y169500D01*
X50070Y171729D01*
X49210Y173807D01*
X47841Y175591D01*
X46057Y176960D01*
X43979Y177820D01*
X41750Y178114D01*
D02*
G37*
G36*
X431640Y878223D02*
X429019Y877878D01*
X426577Y876866D01*
X424479Y875257D01*
X422870Y873159D01*
X421858Y870717D01*
X421513Y868096D01*
X421858Y865475D01*
X422870Y863033D01*
X424479Y860935D01*
X426577Y859326D01*
X427755Y858838D01*
Y345020D01*
X427245Y344679D01*
X425898Y342663D01*
X425425Y340284D01*
X425898Y337906D01*
X427245Y335889D01*
X429262Y334542D01*
X431640Y334069D01*
X434019Y334542D01*
X436035Y335889D01*
X437382Y337906D01*
X437855Y340284D01*
X437382Y342663D01*
X436035Y344679D01*
X435525Y345020D01*
Y858838D01*
X436703Y859326D01*
X438801Y860935D01*
X440410Y863033D01*
X441422Y865475D01*
X441767Y868096D01*
X441422Y870717D01*
X440410Y873159D01*
X438801Y875257D01*
X436703Y876866D01*
X434261Y877878D01*
X431640Y878223D01*
D02*
G37*
G36*
X69600Y359075D02*
X66882Y358717D01*
X64348Y357667D01*
X62173Y355998D01*
X60504Y353823D01*
X59454Y351289D01*
X59096Y348571D01*
X59454Y345852D01*
X60504Y343319D01*
X62173Y341143D01*
X64348Y339474D01*
X66882Y338425D01*
X69600Y338067D01*
X72319Y338425D01*
X74852Y339474D01*
X77028Y341143D01*
X78697Y343319D01*
X79746Y345852D01*
X80104Y348571D01*
X79746Y351289D01*
X78697Y353823D01*
X77028Y355998D01*
X74852Y357667D01*
X72319Y358717D01*
X69600Y359075D01*
D02*
G37*
G36*
X511862Y368614D02*
X509633Y368320D01*
X507555Y367460D01*
X505771Y366091D01*
X504402Y364307D01*
X503542Y362229D01*
X503248Y360000D01*
X503542Y357771D01*
X504402Y355693D01*
X505771Y353909D01*
X507555Y352540D01*
X509633Y351680D01*
X511862Y351386D01*
X514091Y351680D01*
X514514Y351855D01*
X516285Y350083D01*
X516300Y349932D01*
X514514Y348145D01*
X514091Y348320D01*
X511862Y348614D01*
X509633Y348320D01*
X507555Y347460D01*
X505771Y346091D01*
X504402Y344307D01*
X503542Y342229D01*
X503248Y340000D01*
X503542Y337771D01*
X504402Y335693D01*
X505771Y333909D01*
X507555Y332540D01*
X509633Y331680D01*
X511862Y331386D01*
X514091Y331680D01*
X516169Y332540D01*
X517953Y333909D01*
X519322Y335693D01*
X520182Y337771D01*
X520476Y340000D01*
X520182Y342229D01*
X520007Y342652D01*
X521221Y343865D01*
X531957D01*
X613149Y262673D01*
X614409Y261831D01*
X615896Y261535D01*
X630221D01*
X640984Y250773D01*
X640882Y250000D01*
X641193Y247640D01*
X642104Y245441D01*
X643553Y243553D01*
X645441Y242104D01*
X647640Y241193D01*
X650000Y240882D01*
X652360Y241193D01*
X654559Y242104D01*
X656447Y243553D01*
X657896Y245441D01*
X658807Y247640D01*
X659118Y250000D01*
X658807Y252360D01*
X657896Y254559D01*
X656447Y256447D01*
X654559Y257896D01*
X652360Y258807D01*
X650000Y259118D01*
X647640Y258807D01*
X645441Y257896D01*
X645105Y257639D01*
X634577Y268167D01*
X634495Y269001D01*
X642002Y276508D01*
X642957Y275671D01*
X642104Y274559D01*
X641193Y272360D01*
X640882Y270000D01*
X641193Y267640D01*
X642104Y265441D01*
X643553Y263553D01*
X645441Y262104D01*
X647640Y261193D01*
X650000Y260882D01*
X652360Y261193D01*
X654559Y262104D01*
X656447Y263553D01*
X657896Y265441D01*
X658807Y267640D01*
X659118Y270000D01*
X658807Y272360D01*
X657896Y274559D01*
X656447Y276447D01*
X654559Y277896D01*
X652360Y278807D01*
X650000Y279118D01*
X647640Y278807D01*
X645441Y277896D01*
X644329Y277043D01*
X643492Y277998D01*
X646454Y280960D01*
X659040D01*
Y299040D01*
X640960D01*
Y286454D01*
X628891Y274385D01*
X619609D01*
X538417Y355577D01*
X537157Y356419D01*
X535670Y356715D01*
X522731D01*
X520182Y357771D01*
X520476Y360000D01*
X520182Y362229D01*
X519322Y364307D01*
X517953Y366091D01*
X516169Y367460D01*
X514091Y368320D01*
X511862Y368614D01*
D02*
G37*
G36*
X197862Y348614D02*
X195633Y348320D01*
X193555Y347460D01*
X191771Y346091D01*
X190402Y344307D01*
X189542Y342229D01*
X189248Y340000D01*
X189542Y337771D01*
X190402Y335693D01*
X191771Y333909D01*
X193555Y332540D01*
X195633Y331680D01*
X197862Y331386D01*
X200091Y331680D01*
X202169Y332540D01*
X203953Y333909D01*
X205322Y335693D01*
X206182Y337771D01*
X206476Y340000D01*
X206182Y342229D01*
X205322Y344307D01*
X203953Y346091D01*
X202169Y347460D01*
X200091Y348320D01*
X197862Y348614D01*
D02*
G37*
G36*
Y308614D02*
X195633Y308320D01*
X193555Y307460D01*
X191771Y306091D01*
X190402Y304307D01*
X189542Y302229D01*
X189248Y300000D01*
X189542Y297771D01*
X190402Y295693D01*
X191771Y293909D01*
X193555Y292540D01*
X195633Y291680D01*
X197862Y291386D01*
X200091Y291680D01*
X202169Y292540D01*
X203953Y293909D01*
X205322Y295693D01*
X206182Y297771D01*
X206476Y300000D01*
X206182Y302229D01*
X205322Y304307D01*
X203953Y306091D01*
X202169Y307460D01*
X200091Y308320D01*
X197862Y308614D01*
D02*
G37*
G36*
Y328614D02*
X195633Y328320D01*
X193555Y327460D01*
X191771Y326091D01*
X190402Y324307D01*
X189542Y322229D01*
X189248Y320000D01*
X189542Y317771D01*
X190402Y315693D01*
X191771Y313909D01*
X193555Y312540D01*
X195633Y311680D01*
X197862Y311386D01*
X200091Y311680D01*
X202169Y312540D01*
X203953Y313909D01*
X205322Y315693D01*
X206182Y317771D01*
X206476Y320000D01*
X206182Y322229D01*
X205322Y324307D01*
X203953Y326091D01*
X202169Y327460D01*
X200091Y328320D01*
X197862Y328614D01*
D02*
G37*
G36*
X100207Y345015D02*
X89793D01*
X84586Y339808D01*
Y329394D01*
X89793Y324187D01*
X100207D01*
X105414Y329394D01*
Y339808D01*
X100207Y345015D01*
D02*
G37*
G36*
X197862Y468614D02*
X195633Y468320D01*
X193555Y467460D01*
X191771Y466091D01*
X190402Y464307D01*
X189542Y462229D01*
X189248Y460000D01*
X189542Y457771D01*
X190402Y455693D01*
X191771Y453909D01*
X193555Y452540D01*
X195633Y451680D01*
X197862Y451386D01*
X200091Y451680D01*
X202169Y452540D01*
X203953Y453909D01*
X205322Y455693D01*
X206182Y457771D01*
X206476Y460000D01*
X206182Y462229D01*
X205322Y464307D01*
X203953Y466091D01*
X202169Y467460D01*
X200091Y468320D01*
X197862Y468614D01*
D02*
G37*
G36*
X511862Y768614D02*
X509633Y768320D01*
X507555Y767460D01*
X505771Y766091D01*
X504402Y764307D01*
X503542Y762229D01*
X503248Y760000D01*
X503542Y757771D01*
X504402Y755693D01*
X505771Y753909D01*
X507555Y752540D01*
X509633Y751680D01*
X511862Y751386D01*
X514091Y751680D01*
X516169Y752540D01*
X517953Y753909D01*
X519322Y755693D01*
X520182Y757771D01*
X520476Y760000D01*
X520182Y762229D01*
X519322Y764307D01*
X517953Y766091D01*
X516169Y767460D01*
X514091Y768320D01*
X511862Y768614D01*
D02*
G37*
G36*
X69600Y777877D02*
X66882Y777519D01*
X64348Y776469D01*
X62173Y774800D01*
X60504Y772625D01*
X59454Y770091D01*
X59096Y767373D01*
X59454Y764654D01*
X60504Y762121D01*
X62173Y759945D01*
X64348Y758276D01*
X66882Y757227D01*
X69600Y756869D01*
X72319Y757227D01*
X74852Y758276D01*
X77028Y759945D01*
X78697Y762121D01*
X79746Y764654D01*
X80104Y767373D01*
X79746Y770091D01*
X78697Y772625D01*
X77028Y774800D01*
X74852Y776469D01*
X72319Y777519D01*
X69600Y777877D01*
D02*
G37*
G36*
X95000Y791635D02*
X92282Y791277D01*
X89748Y790228D01*
X87573Y788558D01*
X85904Y786383D01*
X84854Y783849D01*
X84496Y781131D01*
X84854Y778412D01*
X85904Y775879D01*
X87573Y773704D01*
X89748Y772034D01*
X92282Y770985D01*
X95000Y770627D01*
X97719Y770985D01*
X100252Y772034D01*
X102428Y773704D01*
X104097Y775879D01*
X105146Y778412D01*
X105504Y781131D01*
X105146Y783849D01*
X104097Y786383D01*
X102428Y788558D01*
X100252Y790228D01*
X97719Y791277D01*
X95000Y791635D01*
D02*
G37*
G36*
X100207Y763817D02*
X89793D01*
X84586Y758610D01*
Y748196D01*
X89793Y742989D01*
X100207D01*
X105414Y748196D01*
Y758610D01*
X100207Y763817D01*
D02*
G37*
G36*
X318610Y835957D02*
X316231Y835484D01*
X314215Y834137D01*
X312868Y832121D01*
X312395Y829742D01*
X312868Y827364D01*
X314215Y825347D01*
X314471Y825176D01*
Y704176D01*
X313961Y703835D01*
X312614Y701818D01*
X312141Y699440D01*
X312614Y697061D01*
X313961Y695045D01*
X315977Y693698D01*
X318356Y693225D01*
X320734Y693698D01*
X322751Y695045D01*
X324098Y697061D01*
X324571Y699440D01*
X324098Y701818D01*
X322751Y703835D01*
X322241Y704176D01*
Y824836D01*
X323005Y825347D01*
X324352Y827364D01*
X324825Y829742D01*
X324352Y832121D01*
X323005Y834137D01*
X320989Y835484D01*
X318610Y835957D01*
D02*
G37*
G36*
X457040Y878223D02*
X454419Y877878D01*
X451977Y876866D01*
X449879Y875257D01*
X448270Y873159D01*
X447258Y870717D01*
X446913Y868096D01*
X447258Y865475D01*
X448270Y863033D01*
X449879Y860935D01*
X451977Y859326D01*
X453155Y858838D01*
Y745160D01*
X453451Y743673D01*
X454293Y742413D01*
X479453Y717253D01*
X480713Y716411D01*
X482200Y716115D01*
X504769D01*
X504839Y715945D01*
X506128Y714266D01*
X507807Y712977D01*
X509763Y712167D01*
X511862Y711891D01*
X513961Y712167D01*
X515917Y712977D01*
X517596Y714266D01*
X518885Y715945D01*
X519695Y717901D01*
X519971Y720000D01*
X519695Y722099D01*
X518885Y724055D01*
X517596Y725734D01*
X515917Y727023D01*
X513961Y727833D01*
X511862Y728109D01*
X509763Y727833D01*
X507807Y727023D01*
X506128Y725734D01*
X504839Y724055D01*
X504769Y723885D01*
X483809D01*
X460925Y746769D01*
Y858838D01*
X462103Y859326D01*
X464201Y860935D01*
X465810Y863033D01*
X466822Y865475D01*
X467167Y868096D01*
X466822Y870717D01*
X465810Y873159D01*
X464201Y875257D01*
X462103Y876866D01*
X459661Y877878D01*
X457040Y878223D01*
D02*
G37*
G36*
X482440D02*
X479819Y877878D01*
X477377Y876866D01*
X475279Y875257D01*
X473670Y873159D01*
X472658Y870717D01*
X472313Y868096D01*
X472658Y865475D01*
X473670Y863033D01*
X475279Y860935D01*
X477377Y859326D01*
X478555Y858838D01*
Y746176D01*
X478851Y744689D01*
X479693Y743429D01*
X485869Y737253D01*
X487129Y736411D01*
X488616Y736115D01*
X504227D01*
X504402Y735693D01*
X505771Y733909D01*
X507555Y732540D01*
X509633Y731680D01*
X511862Y731386D01*
X514091Y731680D01*
X516169Y732540D01*
X517953Y733909D01*
X519322Y735693D01*
X520182Y737771D01*
X520476Y740000D01*
X520182Y742229D01*
X519322Y744307D01*
X517953Y746091D01*
X516169Y747460D01*
X514091Y748320D01*
X511862Y748614D01*
X509633Y748320D01*
X507555Y747460D01*
X505771Y746091D01*
X504402Y744307D01*
X504227Y743885D01*
X490225D01*
X486325Y747785D01*
Y858838D01*
X487503Y859326D01*
X489601Y860935D01*
X491210Y863033D01*
X492222Y865475D01*
X492567Y868096D01*
X492222Y870717D01*
X491210Y873159D01*
X489601Y875257D01*
X487503Y876866D01*
X485061Y877878D01*
X482440Y878223D01*
D02*
G37*
G36*
X69600Y805605D02*
X66882Y805247D01*
X64348Y804197D01*
X62173Y802528D01*
X60504Y800353D01*
X59454Y797820D01*
X59096Y795101D01*
X59454Y792382D01*
X60504Y789849D01*
X62173Y787673D01*
X64348Y786004D01*
X66882Y784955D01*
X69600Y784597D01*
X72319Y784955D01*
X74852Y786004D01*
X77028Y787673D01*
X78697Y789849D01*
X79746Y792382D01*
X80104Y795101D01*
X79746Y797820D01*
X78697Y800353D01*
X77028Y802528D01*
X74852Y804197D01*
X72319Y805247D01*
X69600Y805605D01*
D02*
G37*
G36*
X203040Y878223D02*
X200419Y877878D01*
X197977Y876866D01*
X195879Y875257D01*
X194270Y873159D01*
X193258Y870717D01*
X192913Y868096D01*
X193258Y865475D01*
X194270Y863033D01*
X195879Y860935D01*
X197977Y859326D01*
X199155Y858838D01*
Y853110D01*
X199451Y851623D01*
X200293Y850363D01*
X213125Y837531D01*
Y827046D01*
X211952Y826560D01*
X181525Y856987D01*
Y858838D01*
X182703Y859326D01*
X184801Y860935D01*
X186410Y863033D01*
X187422Y865475D01*
X187767Y868096D01*
X187422Y870717D01*
X186410Y873159D01*
X184801Y875257D01*
X182703Y876866D01*
X180261Y877878D01*
X177640Y878223D01*
X175019Y877878D01*
X172577Y876866D01*
X170479Y875257D01*
X168870Y873159D01*
X167858Y870717D01*
X167513Y868096D01*
X167858Y865475D01*
X168870Y863033D01*
X170479Y860935D01*
X172577Y859326D01*
X173755Y858838D01*
Y855378D01*
X174051Y853891D01*
X174893Y852631D01*
X207443Y820081D01*
Y802395D01*
X206182Y802229D01*
X205322Y804307D01*
X203953Y806091D01*
X202169Y807460D01*
X200091Y808320D01*
X197862Y808614D01*
X195633Y808320D01*
X193555Y807460D01*
X191771Y806091D01*
X190402Y804307D01*
X189542Y802229D01*
X189248Y800000D01*
X189542Y797771D01*
X189717Y797348D01*
X180233Y787865D01*
X179391Y786604D01*
X179095Y785118D01*
Y752587D01*
X137807Y711299D01*
X136965Y710039D01*
X136669Y708552D01*
Y254688D01*
X136669Y254688D01*
X136669D01*
X136965Y253201D01*
X137807Y251941D01*
X243934Y145814D01*
X243815Y145212D01*
X244288Y142833D01*
X245635Y140817D01*
X247652Y139470D01*
X250030Y138997D01*
X252409Y139470D01*
X254425Y140817D01*
X255772Y142833D01*
X256245Y145212D01*
X255772Y147591D01*
X254425Y149607D01*
X252409Y150954D01*
X250030Y151427D01*
X249428Y151308D01*
X247983Y152753D01*
X248692Y153815D01*
X250179Y153519D01*
X352990D01*
X353331Y153009D01*
X355348Y151662D01*
X357726Y151189D01*
X360104Y151662D01*
X362121Y153009D01*
X363468Y155026D01*
X363941Y157404D01*
X363468Y159782D01*
X362801Y160781D01*
X363400Y161901D01*
X461194D01*
X461535Y161391D01*
X463551Y160044D01*
X465930Y159571D01*
X468308Y160044D01*
X470325Y161391D01*
X471672Y163407D01*
X472145Y165786D01*
X471672Y168165D01*
X470835Y169417D01*
X471434Y170537D01*
X569144D01*
X569485Y170027D01*
X571502Y168680D01*
X573880Y168207D01*
X576259Y168680D01*
X578275Y170027D01*
X579622Y172043D01*
X580095Y174422D01*
X579622Y176800D01*
X578275Y178817D01*
X576259Y180164D01*
X573880Y180637D01*
X571502Y180164D01*
X569485Y178817D01*
X569144Y178307D01*
X268693D01*
X262813Y184187D01*
X262625Y185134D01*
X263430Y186115D01*
X469264D01*
X469605Y185605D01*
X471622Y184258D01*
X474000Y183785D01*
X476379Y184258D01*
X478395Y185605D01*
X479742Y187621D01*
X480215Y190000D01*
X479742Y192379D01*
X478395Y194395D01*
X476379Y195742D01*
X474000Y196215D01*
X471622Y195742D01*
X469605Y194395D01*
X469264Y193885D01*
X263532D01*
X167809Y289608D01*
Y560417D01*
X183507Y576115D01*
X190228D01*
X190402Y575693D01*
X191771Y573909D01*
X193555Y572540D01*
X195633Y571680D01*
X197862Y571386D01*
X200091Y571680D01*
X202169Y572540D01*
X203953Y573909D01*
X205322Y575693D01*
X206182Y577771D01*
X206476Y580000D01*
X206182Y582229D01*
X205322Y584307D01*
X203953Y586091D01*
X202169Y587460D01*
X200091Y588320D01*
X197862Y588614D01*
X195633Y588320D01*
X193555Y587460D01*
X191771Y586091D01*
X190402Y584307D01*
X190228Y583885D01*
X181898D01*
X180411Y583589D01*
X179151Y582747D01*
X161616Y565212D01*
X160443Y565698D01*
Y657087D01*
X195593Y692237D01*
X195763Y692167D01*
X197862Y691891D01*
X199961Y692167D01*
X201917Y692977D01*
X203596Y694266D01*
X204885Y695945D01*
X205695Y697901D01*
X205971Y700000D01*
X205695Y702099D01*
X204885Y704055D01*
X203596Y705734D01*
X201917Y707023D01*
X199961Y707833D01*
X197862Y708109D01*
X195763Y707833D01*
X193807Y707023D01*
X192128Y705734D01*
X190839Y704055D01*
X190029Y702099D01*
X189753Y700000D01*
X190029Y697901D01*
X190099Y697731D01*
X156536Y664168D01*
X155363Y664654D01*
Y672007D01*
X195593Y712237D01*
X195763Y712167D01*
X197862Y711891D01*
X199961Y712167D01*
X201917Y712977D01*
X203596Y714266D01*
X204885Y715945D01*
X205695Y717901D01*
X205971Y720000D01*
X205695Y722099D01*
X204885Y724055D01*
X203596Y725734D01*
X201917Y727023D01*
X199961Y727833D01*
X197862Y728109D01*
X195763Y727833D01*
X193807Y727023D01*
X192128Y725734D01*
X190839Y724055D01*
X190029Y722099D01*
X189753Y720000D01*
X190029Y717901D01*
X190099Y717731D01*
X150692Y678324D01*
X149519Y678810D01*
Y704839D01*
X180795Y736115D01*
X190228D01*
X190402Y735693D01*
X191771Y733909D01*
X193555Y732540D01*
X195633Y731680D01*
X197862Y731386D01*
X200091Y731680D01*
X202169Y732540D01*
X203953Y733909D01*
X205322Y735693D01*
X206182Y737771D01*
X206476Y740000D01*
X206182Y742229D01*
X205322Y744307D01*
X203953Y746091D01*
X202169Y747460D01*
X200091Y748320D01*
X197862Y748614D01*
X195633Y748320D01*
X193555Y747460D01*
X191771Y746091D01*
X190402Y744307D01*
X190228Y743885D01*
X183039D01*
X182553Y745058D01*
X185727Y748231D01*
X186569Y749492D01*
X186864Y750978D01*
Y783509D01*
X195210Y791855D01*
X195633Y791680D01*
X197862Y791386D01*
X200091Y791680D01*
X202169Y792540D01*
X203953Y793909D01*
X205322Y795693D01*
X206182Y797771D01*
X207443Y797605D01*
Y775075D01*
X200514Y768145D01*
X200091Y768320D01*
X197862Y768614D01*
X195633Y768320D01*
X193555Y767460D01*
X191771Y766091D01*
X190402Y764307D01*
X189542Y762229D01*
X189248Y760000D01*
X189542Y757771D01*
X190402Y755693D01*
X191771Y753909D01*
X193555Y752540D01*
X195633Y751680D01*
X197862Y751386D01*
X200091Y751680D01*
X202169Y752540D01*
X203953Y753909D01*
X205322Y755693D01*
X206182Y757771D01*
X206476Y760000D01*
X206182Y762229D01*
X206007Y762652D01*
X211952Y768596D01*
X213125Y768110D01*
Y532139D01*
X205990Y525004D01*
X204723Y525087D01*
X203953Y526091D01*
X202169Y527460D01*
X200091Y528320D01*
X197862Y528614D01*
X195633Y528320D01*
X193555Y527460D01*
X191771Y526091D01*
X190402Y524307D01*
X189542Y522229D01*
X189248Y520000D01*
X189542Y517771D01*
X190402Y515693D01*
X191771Y513909D01*
X193555Y512540D01*
X195633Y511680D01*
X197862Y511386D01*
X200091Y511680D01*
X202169Y512540D01*
X203953Y513909D01*
X205322Y515693D01*
X205497Y516115D01*
X206480D01*
X207966Y516411D01*
X209227Y517253D01*
X219757Y527783D01*
X220599Y529043D01*
X220895Y530530D01*
X220895Y530530D01*
X220895Y530530D01*
Y530530D01*
Y839140D01*
X220648Y840380D01*
X220599Y840627D01*
X219757Y841887D01*
X206925Y854719D01*
Y858838D01*
X208103Y859326D01*
X210201Y860935D01*
X211810Y863033D01*
X212822Y865475D01*
X213167Y868096D01*
X212822Y870717D01*
X211810Y873159D01*
X210201Y875257D01*
X208103Y876866D01*
X205661Y877878D01*
X203040Y878223D01*
D02*
G37*
G36*
X659040Y866040D02*
X640960D01*
Y853454D01*
X631391Y843885D01*
X608816D01*
X607329Y843589D01*
X606069Y842747D01*
X562253Y798931D01*
X561411Y797671D01*
X561115Y796184D01*
Y696859D01*
X540141Y675885D01*
X521471D01*
X520007Y677348D01*
X520182Y677771D01*
X520476Y680000D01*
X520182Y682229D01*
X519322Y684307D01*
X517953Y686091D01*
X516169Y687460D01*
X514091Y688320D01*
X511862Y688614D01*
X509633Y688320D01*
X507555Y687460D01*
X505771Y686091D01*
X504402Y684307D01*
X503542Y682229D01*
X503248Y680000D01*
X503542Y677771D01*
X504402Y675693D01*
X505771Y673909D01*
X507555Y672540D01*
X509633Y671680D01*
X511862Y671386D01*
X514091Y671680D01*
X514514Y671855D01*
X516095Y670273D01*
X516035Y669667D01*
X514514Y668145D01*
X514091Y668320D01*
X511862Y668614D01*
X509633Y668320D01*
X507555Y667460D01*
X505771Y666091D01*
X504402Y664307D01*
X503542Y662229D01*
X503248Y660000D01*
X503542Y657771D01*
X504402Y655693D01*
X505771Y653909D01*
X507555Y652540D01*
X509633Y651680D01*
X511862Y651386D01*
X514091Y651680D01*
X516169Y652540D01*
X517953Y653909D01*
X519322Y655693D01*
X520182Y657771D01*
X520476Y660000D01*
X520202Y662081D01*
X520418Y662327D01*
X522128Y663035D01*
X543854D01*
X545341Y663331D01*
X546601Y664173D01*
X572827Y690399D01*
X573669Y691659D01*
X573965Y693146D01*
Y792471D01*
X612529Y831035D01*
X630471D01*
X641472Y820034D01*
X641193Y819360D01*
X640882Y817000D01*
X641193Y814640D01*
X642104Y812441D01*
X643553Y810553D01*
X645441Y809103D01*
X647640Y808193D01*
X650000Y807882D01*
X652360Y808193D01*
X654559Y809103D01*
X656447Y810553D01*
X657896Y812441D01*
X658807Y814640D01*
X659118Y817000D01*
X658807Y819360D01*
X657896Y821559D01*
X656447Y823447D01*
X654559Y824896D01*
X652360Y825807D01*
X650000Y826118D01*
X647640Y825807D01*
X646966Y825528D01*
X643492Y829002D01*
X644329Y829957D01*
X645441Y829103D01*
X647640Y828193D01*
X650000Y827882D01*
X652360Y828193D01*
X654559Y829103D01*
X656447Y830553D01*
X657896Y832441D01*
X658807Y834640D01*
X659118Y837000D01*
X658807Y839360D01*
X657896Y841559D01*
X656447Y843447D01*
X654559Y844896D01*
X652360Y845807D01*
X650000Y846118D01*
X647640Y845807D01*
X645441Y844896D01*
X644329Y844043D01*
X643492Y844998D01*
X646454Y847960D01*
X659040D01*
Y866040D01*
D02*
G37*
G36*
X69600Y861061D02*
X66882Y860703D01*
X64348Y859654D01*
X62173Y857985D01*
X60504Y855809D01*
X59454Y853276D01*
X59096Y850557D01*
X59454Y847839D01*
X60504Y845305D01*
X62173Y843130D01*
X64348Y841461D01*
X66882Y840411D01*
X69600Y840053D01*
X72319Y840411D01*
X74852Y841461D01*
X77028Y843130D01*
X78697Y845305D01*
X79746Y847839D01*
X80104Y850557D01*
X79746Y853276D01*
X78697Y855809D01*
X77028Y857985D01*
X74852Y859654D01*
X72319Y860703D01*
X69600Y861061D01*
D02*
G37*
G36*
X95000Y847091D02*
X92281Y846733D01*
X89748Y845684D01*
X87572Y844014D01*
X85903Y841839D01*
X84853Y839305D01*
X84495Y836586D01*
X84853Y833867D01*
X85903Y831334D01*
X87572Y829158D01*
X89748Y827489D01*
X92281Y826439D01*
X95000Y826081D01*
X97719Y826439D01*
X100253Y827489D01*
X102428Y829158D01*
X104098Y831334D01*
X105147Y833867D01*
X105505Y836586D01*
X105147Y839305D01*
X104098Y841839D01*
X102428Y844014D01*
X100253Y845684D01*
X97719Y846733D01*
X95000Y847091D01*
D02*
G37*
G36*
X533240Y878223D02*
X530619Y877878D01*
X528177Y876866D01*
X526079Y875257D01*
X524470Y873159D01*
X523458Y870717D01*
X523113Y868096D01*
X523458Y865475D01*
X524470Y863033D01*
X526079Y860935D01*
X526766Y860409D01*
Y791022D01*
X522218Y786474D01*
X517453D01*
X516169Y787460D01*
X514091Y788320D01*
X511862Y788614D01*
X509633Y788320D01*
X507555Y787460D01*
X505771Y786091D01*
X504402Y784307D01*
X503542Y782229D01*
X503248Y780000D01*
X503542Y777771D01*
X504402Y775693D01*
X505771Y773909D01*
X507555Y772540D01*
X509633Y771680D01*
X511862Y771386D01*
X514091Y771680D01*
X516169Y772540D01*
X517453Y773526D01*
X524900D01*
X527378Y774018D01*
X529478Y775422D01*
X537818Y783762D01*
X539222Y785862D01*
X539714Y788340D01*
Y860409D01*
X540401Y860935D01*
X542010Y863033D01*
X543022Y865475D01*
X543367Y868096D01*
X543022Y870717D01*
X542010Y873159D01*
X540401Y875257D01*
X538303Y876866D01*
X535861Y877878D01*
X533240Y878223D01*
D02*
G37*
G36*
X95000Y819361D02*
X92281Y819003D01*
X89748Y817953D01*
X87572Y816284D01*
X85903Y814109D01*
X84853Y811575D01*
X84495Y808856D01*
X84853Y806137D01*
X85903Y803604D01*
X87572Y801428D01*
X89748Y799759D01*
X92281Y798709D01*
X95000Y798351D01*
X97719Y798709D01*
X100253Y799759D01*
X102428Y801428D01*
X104098Y803604D01*
X105147Y806137D01*
X105505Y808856D01*
X105147Y811575D01*
X104098Y814109D01*
X102428Y816284D01*
X100253Y817953D01*
X97719Y819003D01*
X95000Y819361D01*
D02*
G37*
G36*
X69600Y833333D02*
X66882Y832975D01*
X64348Y831926D01*
X62173Y830256D01*
X60504Y828081D01*
X59454Y825548D01*
X59096Y822829D01*
X59454Y820110D01*
X60504Y817577D01*
X62173Y815402D01*
X64348Y813733D01*
X66882Y812683D01*
X69600Y812325D01*
X72319Y812683D01*
X74852Y813733D01*
X77028Y815402D01*
X78697Y817577D01*
X79746Y820110D01*
X80104Y822829D01*
X79746Y825548D01*
X78697Y828081D01*
X77028Y830256D01*
X74852Y831926D01*
X72319Y832975D01*
X69600Y833333D01*
D02*
G37*
G36*
X197862Y548614D02*
X195633Y548320D01*
X193555Y547460D01*
X191771Y546091D01*
X190402Y544307D01*
X189542Y542229D01*
X189248Y540000D01*
X189542Y537771D01*
X190402Y535693D01*
X191771Y533909D01*
X193555Y532540D01*
X195633Y531680D01*
X197862Y531386D01*
X200091Y531680D01*
X202169Y532540D01*
X203953Y533909D01*
X205322Y535693D01*
X206182Y537771D01*
X206476Y540000D01*
X206182Y542229D01*
X205322Y544307D01*
X203953Y546091D01*
X202169Y547460D01*
X200091Y548320D01*
X197862Y548614D01*
D02*
G37*
G36*
X659040Y582540D02*
X640960D01*
Y569954D01*
X631641Y560635D01*
X590066D01*
X588579Y560339D01*
X587319Y559497D01*
X544457Y516635D01*
X520855D01*
X520149Y517691D01*
X520182Y517771D01*
X520476Y520000D01*
X520182Y522229D01*
X519322Y524307D01*
X517953Y526091D01*
X516169Y527460D01*
X514091Y528320D01*
X511862Y528614D01*
X509633Y528320D01*
X507555Y527460D01*
X505771Y526091D01*
X504402Y524307D01*
X503542Y522229D01*
X503248Y520000D01*
X503542Y517771D01*
X504402Y515693D01*
X505771Y513909D01*
X507555Y512540D01*
X509633Y511680D01*
X511862Y511386D01*
X514091Y511680D01*
X514514Y511855D01*
X515926Y510443D01*
X515923Y510417D01*
X513857Y508351D01*
X511862Y508614D01*
X509633Y508320D01*
X507555Y507460D01*
X505771Y506091D01*
X504402Y504307D01*
X503542Y502229D01*
X503248Y500000D01*
X503542Y497771D01*
X504402Y495693D01*
X505771Y493909D01*
X507555Y492540D01*
X509633Y491680D01*
X511862Y491386D01*
X514091Y491680D01*
X516169Y492540D01*
X517953Y493909D01*
X519322Y495693D01*
X520182Y497771D01*
X520476Y500000D01*
X520182Y502229D01*
X519975Y502729D01*
X520681Y503785D01*
X548170D01*
X549657Y504081D01*
X550917Y504923D01*
X593779Y547785D01*
X631971D01*
X641985Y537772D01*
X641193Y535860D01*
X640882Y533500D01*
X641193Y531140D01*
X642104Y528941D01*
X643553Y527053D01*
X645441Y525604D01*
X647640Y524693D01*
X650000Y524382D01*
X652360Y524693D01*
X654559Y525604D01*
X656447Y527053D01*
X657896Y528941D01*
X658807Y531140D01*
X659118Y533500D01*
X658807Y535860D01*
X657896Y538059D01*
X656447Y539947D01*
X654559Y541396D01*
X652360Y542307D01*
X650000Y542618D01*
X648344Y542400D01*
X647207Y543537D01*
X647769Y544676D01*
X650000Y544382D01*
X652360Y544693D01*
X654559Y545604D01*
X656447Y547053D01*
X657896Y548941D01*
X658807Y551140D01*
X659118Y553500D01*
X658807Y555860D01*
X657896Y558059D01*
X656447Y559947D01*
X654559Y561396D01*
X652360Y562307D01*
X650000Y562618D01*
X647640Y562307D01*
X645441Y561396D01*
X644329Y560543D01*
X643492Y561498D01*
X646454Y564460D01*
X659040D01*
Y582540D01*
D02*
G37*
G36*
X197862Y568614D02*
X195633Y568320D01*
X193555Y567460D01*
X191771Y566091D01*
X190402Y564307D01*
X189542Y562229D01*
X189248Y560000D01*
X189542Y557771D01*
X190402Y555693D01*
X191771Y553909D01*
X193555Y552540D01*
X195633Y551680D01*
X197862Y551386D01*
X200091Y551680D01*
X202169Y552540D01*
X203953Y553909D01*
X205322Y555693D01*
X206182Y557771D01*
X206476Y560000D01*
X206182Y562229D01*
X205322Y564307D01*
X203953Y566091D01*
X202169Y567460D01*
X200091Y568320D01*
X197862Y568614D01*
D02*
G37*
G36*
X380840Y878223D02*
X378219Y877878D01*
X375777Y876866D01*
X373679Y875257D01*
X372070Y873159D01*
X371058Y870717D01*
X370713Y868096D01*
X371058Y865475D01*
X372070Y863033D01*
X373679Y860935D01*
X375777Y859326D01*
X376955Y858838D01*
Y523589D01*
X375835Y522990D01*
X375345Y523318D01*
X372966Y523791D01*
X371793Y523558D01*
X371087Y524614D01*
X371245Y524850D01*
X371718Y527228D01*
X371245Y529607D01*
X369897Y531623D01*
X367881Y532970D01*
X365502Y533443D01*
X363124Y532970D01*
X361107Y531623D01*
X360540Y530774D01*
X359325Y531143D01*
Y858838D01*
X360503Y859326D01*
X362601Y860935D01*
X364210Y863033D01*
X365222Y865475D01*
X365567Y868096D01*
X365222Y870717D01*
X364210Y873159D01*
X362601Y875257D01*
X360503Y876866D01*
X358061Y877878D01*
X355440Y878223D01*
X352819Y877878D01*
X350377Y876866D01*
X348279Y875257D01*
X346670Y873159D01*
X345658Y870717D01*
X345313Y868096D01*
X345658Y865475D01*
X346670Y863033D01*
X348279Y860935D01*
X350377Y859326D01*
X351555Y858838D01*
Y404736D01*
X351045Y404395D01*
X349698Y402378D01*
X349225Y400000D01*
X349698Y397621D01*
X351045Y395605D01*
X353061Y394258D01*
X355440Y393784D01*
X357818Y394258D01*
X359835Y395605D01*
X360402Y396454D01*
X361618Y396085D01*
Y304840D01*
X360951Y304395D01*
X359604Y302379D01*
X359131Y300000D01*
X359168Y299814D01*
X358047Y299216D01*
X346117Y311147D01*
Y314974D01*
X346627Y315315D01*
X347974Y317332D01*
X348447Y319710D01*
X347974Y322089D01*
X346627Y324105D01*
X346117Y324446D01*
Y515888D01*
X346627Y516229D01*
X347974Y518246D01*
X348447Y520624D01*
X347974Y523003D01*
X346627Y525019D01*
X344610Y526366D01*
X342232Y526839D01*
X339854Y526366D01*
X337837Y525019D01*
X336490Y523003D01*
X336017Y520624D01*
X336490Y518246D01*
X337837Y516229D01*
X338347Y515888D01*
Y324446D01*
X337837Y324105D01*
X336490Y322089D01*
X336017Y319710D01*
X336490Y317332D01*
X337837Y315315D01*
X338347Y314974D01*
Y309920D01*
X337174Y309434D01*
X318603Y328005D01*
Y469914D01*
X319113Y470255D01*
X320461Y472271D01*
X320934Y474650D01*
X320461Y477029D01*
X319113Y479045D01*
X318603Y479386D01*
Y522238D01*
X319113Y522579D01*
X320461Y524595D01*
X320934Y526974D01*
X320461Y529352D01*
X319113Y531369D01*
X317097Y532716D01*
X314718Y533189D01*
X312340Y532716D01*
X311677Y532273D01*
X310557Y532872D01*
Y859981D01*
X311801Y860935D01*
X313410Y863033D01*
X314422Y865475D01*
X314767Y868096D01*
X314422Y870717D01*
X313410Y873159D01*
X311801Y875257D01*
X309703Y876866D01*
X307261Y877878D01*
X304640Y878223D01*
X302019Y877878D01*
X299577Y876866D01*
X297479Y875257D01*
X295870Y873159D01*
X294858Y870717D01*
X294513Y868096D01*
X294858Y865475D01*
X295870Y863033D01*
X297479Y860935D01*
X299577Y859326D01*
X302019Y858314D01*
X302787Y858213D01*
Y542704D01*
X301684Y542114D01*
X299306Y542587D01*
X296928Y542114D01*
X294911Y540767D01*
X293564Y538750D01*
X293091Y536372D01*
X293564Y533993D01*
X294911Y531977D01*
X295421Y531636D01*
Y469819D01*
X294403Y469139D01*
X293056Y467122D01*
X292583Y464744D01*
X293056Y462365D01*
X294403Y460349D01*
X294913Y460008D01*
Y316916D01*
X295209Y315429D01*
X296051Y314169D01*
X358847Y251374D01*
X358358Y250195D01*
X358013Y247574D01*
X358358Y244953D01*
X359370Y242511D01*
X360979Y240413D01*
X363077Y238804D01*
X365519Y237792D01*
X368140Y237447D01*
X370761Y237792D01*
X373203Y238804D01*
X375301Y240413D01*
X376910Y242511D01*
X377922Y244953D01*
X378267Y247574D01*
X377922Y250195D01*
X376910Y252637D01*
X375301Y254735D01*
X373203Y256344D01*
X370761Y257356D01*
X368140Y257701D01*
X365519Y257356D01*
X364340Y256867D01*
X302683Y318525D01*
Y433755D01*
X303803Y434353D01*
X304548Y433856D01*
X306926Y433383D01*
X309305Y433856D01*
X309714Y434129D01*
X310834Y433531D01*
Y326395D01*
X311129Y324909D01*
X311972Y323649D01*
X384247Y251374D01*
X383758Y250195D01*
X383413Y247574D01*
X383758Y244953D01*
X384770Y242511D01*
X386379Y240413D01*
X388477Y238804D01*
X390919Y237792D01*
X393540Y237447D01*
X396161Y237792D01*
X398603Y238804D01*
X400701Y240413D01*
X402310Y242511D01*
X403322Y244953D01*
X403667Y247574D01*
X403322Y250195D01*
X402310Y252637D01*
X400701Y254735D01*
X398603Y256344D01*
X396161Y257356D01*
X393540Y257701D01*
X390919Y257356D01*
X389740Y256867D01*
X372850Y273758D01*
X373336Y274931D01*
X386089D01*
X409647Y251374D01*
X409158Y250195D01*
X408813Y247574D01*
X409158Y244953D01*
X410170Y242511D01*
X411779Y240413D01*
X413877Y238804D01*
X416319Y237792D01*
X418940Y237447D01*
X421561Y237792D01*
X424003Y238804D01*
X426101Y240413D01*
X427710Y242511D01*
X428722Y244953D01*
X429067Y247574D01*
X428722Y250195D01*
X427710Y252637D01*
X426101Y254735D01*
X424003Y256344D01*
X421561Y257356D01*
X418940Y257701D01*
X416319Y257356D01*
X415140Y256867D01*
X390445Y281563D01*
X389185Y282405D01*
X387698Y282701D01*
X374562D01*
X364562Y292701D01*
X365160Y293822D01*
X365346Y293785D01*
X367724Y294258D01*
X369741Y295605D01*
X371088Y297621D01*
X371561Y300000D01*
X371088Y302379D01*
X369741Y304395D01*
X369387Y304632D01*
Y402921D01*
X370507Y403520D01*
X370575Y403474D01*
X372953Y403001D01*
X375332Y403474D01*
X375835Y403810D01*
X376955Y403212D01*
Y384736D01*
X376445Y384395D01*
X375098Y382378D01*
X374625Y380000D01*
X375098Y377621D01*
X376445Y375605D01*
X378461Y374258D01*
X380840Y373784D01*
X383218Y374258D01*
X383404Y374382D01*
X384302Y373484D01*
X383226Y371872D01*
X382753Y369494D01*
X383226Y367116D01*
X384573Y365099D01*
X386590Y363752D01*
X388968Y363279D01*
X391347Y363752D01*
X393363Y365099D01*
X394710Y367116D01*
X395183Y369494D01*
X394710Y371872D01*
X393363Y373889D01*
X393107Y374060D01*
Y530620D01*
X393617Y530961D01*
X394964Y532977D01*
X395437Y535356D01*
X394964Y537734D01*
X393617Y539751D01*
X391600Y541098D01*
X389222Y541571D01*
X386843Y541098D01*
X385845Y540431D01*
X384725Y541030D01*
Y858838D01*
X385903Y859326D01*
X388001Y860935D01*
X389610Y863033D01*
X390622Y865475D01*
X390967Y868096D01*
X390622Y870717D01*
X389610Y873159D01*
X388001Y875257D01*
X385903Y876866D01*
X383461Y877878D01*
X380840Y878223D01*
D02*
G37*
G36*
X253840D02*
X251219Y877878D01*
X248777Y876866D01*
X246679Y875257D01*
X245070Y873159D01*
X244058Y870717D01*
X243713Y868096D01*
X244058Y865475D01*
X245070Y863033D01*
X246679Y860935D01*
X248777Y859326D01*
X249955Y858838D01*
Y505723D01*
X228117Y483885D01*
X205497D01*
X205322Y484307D01*
X203953Y486091D01*
X202169Y487460D01*
X200091Y488320D01*
X197862Y488614D01*
X195633Y488320D01*
X193555Y487460D01*
X191771Y486091D01*
X190402Y484307D01*
X189542Y482229D01*
X189248Y480000D01*
X189542Y477771D01*
X190402Y475693D01*
X191771Y473909D01*
X193555Y472540D01*
X195633Y471680D01*
X197862Y471386D01*
X200091Y471680D01*
X202169Y472540D01*
X203953Y473909D01*
X205322Y475693D01*
X205497Y476115D01*
X229726D01*
X231213Y476411D01*
X232473Y477253D01*
X256587Y501367D01*
X257429Y502627D01*
X257725Y504114D01*
Y858838D01*
X258903Y859326D01*
X261001Y860935D01*
X262610Y863033D01*
X263622Y865475D01*
X263967Y868096D01*
X263622Y870717D01*
X262610Y873159D01*
X261001Y875257D01*
X258903Y876866D01*
X256461Y877878D01*
X253840Y878223D01*
D02*
G37*
G36*
X650000Y522618D02*
X647640Y522307D01*
X645441Y521396D01*
X643553Y519947D01*
X642104Y518059D01*
X641193Y515860D01*
X640882Y513500D01*
X640899Y513369D01*
X628915Y501385D01*
X586066D01*
X584826Y501138D01*
X584579Y501089D01*
X583319Y500247D01*
X559707Y476635D01*
X520855D01*
X520149Y477691D01*
X520182Y477771D01*
X520476Y480000D01*
X520182Y482229D01*
X519322Y484307D01*
X517953Y486091D01*
X516169Y487460D01*
X514091Y488320D01*
X511862Y488614D01*
X509633Y488320D01*
X507555Y487460D01*
X505771Y486091D01*
X504402Y484307D01*
X503542Y482229D01*
X503248Y480000D01*
X503542Y477771D01*
X504402Y475693D01*
X505771Y473909D01*
X507555Y472540D01*
X509633Y471680D01*
X511862Y471386D01*
X514091Y471680D01*
X514514Y471855D01*
X516365Y470003D01*
X516366Y469997D01*
X514514Y468145D01*
X514091Y468320D01*
X511862Y468614D01*
X509633Y468320D01*
X507555Y467460D01*
X505771Y466091D01*
X504402Y464307D01*
X503542Y462229D01*
X503248Y460000D01*
X503542Y457771D01*
X504402Y455693D01*
X505771Y453909D01*
X507555Y452540D01*
X509633Y451680D01*
X511862Y451386D01*
X514091Y451680D01*
X516169Y452540D01*
X517953Y453909D01*
X519322Y455693D01*
X520182Y457771D01*
X520476Y460000D01*
X520182Y462229D01*
X520007Y462652D01*
X521141Y463785D01*
X563420D01*
X564907Y464081D01*
X566167Y464923D01*
X589779Y488535D01*
X629471D01*
X641472Y476534D01*
X641193Y475860D01*
X640882Y473500D01*
X641193Y471140D01*
X642104Y468941D01*
X643553Y467053D01*
X645441Y465604D01*
X647640Y464693D01*
X650000Y464382D01*
X652360Y464693D01*
X654559Y465604D01*
X656447Y467053D01*
X657896Y468941D01*
X658807Y471140D01*
X659118Y473500D01*
X658807Y475860D01*
X657896Y478059D01*
X656447Y479947D01*
X654559Y481396D01*
X652360Y482307D01*
X650000Y482618D01*
X647640Y482307D01*
X646966Y482028D01*
X643492Y485502D01*
X644329Y486457D01*
X645441Y485604D01*
X647640Y484693D01*
X650000Y484382D01*
X652360Y484693D01*
X654559Y485604D01*
X656447Y487053D01*
X657896Y488941D01*
X658807Y491140D01*
X659118Y493500D01*
X658807Y495860D01*
X657896Y498059D01*
X656447Y499947D01*
X654559Y501396D01*
X652360Y502307D01*
X650000Y502618D01*
X647640Y502307D01*
X645441Y501396D01*
X643553Y499947D01*
X642104Y498059D01*
X641193Y495860D01*
X640882Y493500D01*
X641193Y491140D01*
X642104Y488941D01*
X642957Y487829D01*
X642002Y486992D01*
X633827Y495167D01*
X633814Y495296D01*
X644694Y506176D01*
X645441Y505604D01*
X647640Y504693D01*
X650000Y504382D01*
X652360Y504693D01*
X654559Y505604D01*
X656447Y507053D01*
X657896Y508941D01*
X658807Y511140D01*
X659118Y513500D01*
X658807Y515860D01*
X657896Y518059D01*
X656447Y519947D01*
X654559Y521396D01*
X652360Y522307D01*
X650000Y522618D01*
D02*
G37*
G36*
X228440Y878223D02*
X225819Y877878D01*
X223377Y876866D01*
X221279Y875257D01*
X219670Y873159D01*
X218658Y870717D01*
X218313Y868096D01*
X218658Y865475D01*
X219670Y863033D01*
X221279Y860935D01*
X223377Y859326D01*
X224555Y858838D01*
Y523249D01*
X206129Y504823D01*
X204862Y504906D01*
X203953Y506091D01*
X202169Y507460D01*
X200091Y508320D01*
X197862Y508614D01*
X195633Y508320D01*
X193555Y507460D01*
X191771Y506091D01*
X190402Y504307D01*
X189542Y502229D01*
X189248Y500000D01*
X189542Y497771D01*
X190402Y495693D01*
X191771Y493909D01*
X193555Y492540D01*
X195633Y491680D01*
X197862Y491386D01*
X200091Y491680D01*
X202169Y492540D01*
X203953Y493909D01*
X205322Y495693D01*
X205497Y496115D01*
X206800D01*
X208286Y496411D01*
X209547Y497253D01*
X231187Y518893D01*
X232029Y520153D01*
X232325Y521640D01*
Y858838D01*
X233503Y859326D01*
X235601Y860935D01*
X237210Y863033D01*
X238222Y865475D01*
X238567Y868096D01*
X238222Y870717D01*
X237210Y873159D01*
X235601Y875257D01*
X233503Y876866D01*
X231061Y877878D01*
X228440Y878223D01*
D02*
G37*
G36*
X197862Y668614D02*
X195633Y668320D01*
X193555Y667460D01*
X191771Y666091D01*
X190402Y664307D01*
X189542Y662229D01*
X189248Y660000D01*
X189542Y657770D01*
X190402Y655693D01*
X191771Y653909D01*
X193555Y652540D01*
X195633Y651680D01*
X197862Y651386D01*
X200091Y651680D01*
X202169Y652540D01*
X203953Y653909D01*
X205322Y655693D01*
X206182Y657770D01*
X206476Y660000D01*
X206182Y662229D01*
X205322Y664307D01*
X203953Y666091D01*
X202169Y667460D01*
X200091Y668320D01*
X197862Y668614D01*
D02*
G37*
G36*
Y648614D02*
X195633Y648320D01*
X193555Y647460D01*
X191771Y646091D01*
X190402Y644307D01*
X189542Y642229D01*
X189248Y640000D01*
X189542Y637771D01*
X190402Y635693D01*
X191771Y633909D01*
X193555Y632540D01*
X195633Y631680D01*
X197862Y631386D01*
X200091Y631680D01*
X202169Y632540D01*
X203953Y633909D01*
X205322Y635693D01*
X206182Y637771D01*
X206476Y640000D01*
X206182Y642229D01*
X205322Y644307D01*
X203953Y646091D01*
X202169Y647460D01*
X200091Y648320D01*
X197862Y648614D01*
D02*
G37*
G36*
X279240Y878223D02*
X276619Y877878D01*
X274177Y876866D01*
X272079Y875257D01*
X270470Y873159D01*
X269458Y870717D01*
X269113Y868096D01*
X269458Y865475D01*
X270470Y863033D01*
X272079Y860935D01*
X274177Y859326D01*
X275355Y858838D01*
Y464736D01*
X274845Y464395D01*
X273498Y462379D01*
X273025Y460000D01*
X273498Y457621D01*
X274845Y455605D01*
X276861Y454258D01*
X279240Y453784D01*
X281618Y454258D01*
X283635Y455605D01*
X284982Y457621D01*
X285455Y460000D01*
X284982Y462379D01*
X283635Y464395D01*
X283125Y464736D01*
Y681504D01*
X284245Y682103D01*
X285497Y681266D01*
X287876Y680792D01*
X290254Y681266D01*
X292271Y682613D01*
X293618Y684629D01*
X294091Y687008D01*
X293618Y689387D01*
X292271Y691403D01*
X291761Y691744D01*
Y837028D01*
X292525Y837539D01*
X293872Y839556D01*
X294345Y841934D01*
X293872Y844313D01*
X292525Y846329D01*
X290508Y847676D01*
X288130Y848149D01*
X285751Y847676D01*
X284245Y846669D01*
X283125Y847268D01*
Y858838D01*
X284303Y859326D01*
X286401Y860935D01*
X288010Y863033D01*
X289022Y865475D01*
X289367Y868096D01*
X289022Y870717D01*
X288010Y873159D01*
X286401Y875257D01*
X284303Y876866D01*
X281861Y877878D01*
X279240Y878223D01*
D02*
G37*
G36*
X197862Y688614D02*
X195633Y688320D01*
X193555Y687460D01*
X191771Y686091D01*
X190402Y684307D01*
X189542Y682229D01*
X189248Y680000D01*
X189542Y677770D01*
X190402Y675693D01*
X191771Y673909D01*
X193555Y672540D01*
X195633Y671680D01*
X197862Y671386D01*
X200091Y671680D01*
X202169Y672540D01*
X203953Y673909D01*
X205322Y675693D01*
X206182Y677770D01*
X206476Y680000D01*
X206182Y682229D01*
X205322Y684307D01*
X203953Y686091D01*
X202169Y687460D01*
X200091Y688320D01*
X197862Y688614D01*
D02*
G37*
G36*
Y628614D02*
X195633Y628320D01*
X193555Y627460D01*
X191771Y626091D01*
X190402Y624307D01*
X189542Y622229D01*
X189248Y620000D01*
X189542Y617771D01*
X190402Y615693D01*
X191771Y613909D01*
X193555Y612540D01*
X195633Y611680D01*
X197862Y611386D01*
X200091Y611680D01*
X202169Y612540D01*
X203953Y613909D01*
X205322Y615693D01*
X206182Y617771D01*
X206476Y620000D01*
X206182Y622229D01*
X205322Y624307D01*
X203953Y626091D01*
X202169Y627460D01*
X200091Y628320D01*
X197862Y628614D01*
D02*
G37*
G36*
Y608614D02*
X195633Y608320D01*
X193555Y607460D01*
X191771Y606091D01*
X190402Y604307D01*
X189542Y602229D01*
X189248Y600000D01*
X189542Y597771D01*
X190402Y595693D01*
X191771Y593909D01*
X193555Y592540D01*
X195633Y591680D01*
X197862Y591386D01*
X200091Y591680D01*
X202169Y592540D01*
X203953Y593909D01*
X205322Y595693D01*
X206182Y597771D01*
X206476Y600000D01*
X206182Y602229D01*
X205322Y604307D01*
X203953Y606091D01*
X202169Y607460D01*
X200091Y608320D01*
X197862Y608614D01*
D02*
G37*
G36*
X33000Y648917D02*
X31162Y648675D01*
X29450Y647965D01*
X27979Y646837D01*
X26851Y645366D01*
X26141Y643654D01*
X25899Y641816D01*
Y636816D01*
X26141Y634978D01*
X26851Y633266D01*
X27979Y631795D01*
X29450Y630667D01*
X31162Y629957D01*
X33000Y629715D01*
X34838Y629957D01*
X36550Y630667D01*
X38021Y631795D01*
X39149Y633266D01*
X39859Y634978D01*
X40101Y636816D01*
Y641816D01*
X39859Y643654D01*
X39149Y645366D01*
X38021Y646837D01*
X36550Y647965D01*
X34838Y648675D01*
X33000Y648917D01*
D02*
G37*
%LPD*%
G36*
X361107Y522833D02*
X361618Y522492D01*
Y403915D01*
X360402Y403546D01*
X359835Y404395D01*
X359325Y404736D01*
Y523313D01*
X360540Y523682D01*
X361107Y522833D01*
D02*
G37*
G36*
X264337Y171675D02*
X265518Y170886D01*
X265150Y169671D01*
X253823D01*
X159096Y264398D01*
X159215Y265000D01*
X158742Y267379D01*
X157395Y269395D01*
X155379Y270742D01*
X155363Y270746D01*
Y278990D01*
X156536Y279476D01*
X264337Y171675D01*
D02*
G37*
D19*
X752896Y474920D02*
X781020D01*
X737476Y490340D02*
X752896Y474920D01*
X716840Y490340D02*
X737476D01*
X755000Y480000D02*
X778916D01*
X738920Y496080D02*
X755000Y480000D01*
X717420Y496080D02*
X738920D01*
X778916Y480000D02*
X813630Y514714D01*
X816010Y534510D02*
X840176D01*
X811280Y529780D02*
X816010Y534510D01*
X768300Y529780D02*
X811280D01*
X840176Y534510D02*
X840780Y535114D01*
X813630Y514714D02*
X840780D01*
X790000Y483900D02*
X823000D01*
X781020Y474920D02*
X790000Y483900D01*
X817885Y830714D02*
X840780D01*
X807471Y820300D02*
X817885Y830714D01*
X781116Y820300D02*
X807471D01*
X723700Y840700D02*
X823000D01*
X700000Y817000D02*
X723700Y840700D01*
X818041Y851114D02*
X840780D01*
X816731Y849804D02*
X818041Y851114D01*
X707196Y849804D02*
X816731D01*
X700000Y857000D02*
X707196Y849804D01*
X783000Y815000D02*
X807900D01*
X823000Y799900D01*
X613928Y884014D02*
X775030D01*
X813065Y641900D02*
X823000D01*
X789435Y672714D02*
X840780D01*
X767703Y694446D02*
X789435Y672714D01*
X765599Y689366D02*
X813065Y641900D01*
X733000Y630600D02*
Y665000D01*
X719536Y689366D02*
X765599D01*
X705420Y675250D02*
X719536Y689366D01*
X700000Y675250D02*
X705420D01*
X720804Y694446D02*
X767703D01*
X700000Y715250D02*
X720804Y694446D01*
X623014Y726014D02*
X775030D01*
X743000Y643500D02*
Y682000D01*
Y643500D02*
X775000Y611500D01*
X733000Y630600D02*
X775000Y588600D01*
X752044Y591000D02*
X775030Y568014D01*
X627000Y591000D02*
X752044D01*
X797266Y351634D02*
X823000Y325900D01*
X785366Y351634D02*
X797266D01*
X787470Y356714D02*
X840780D01*
X729184Y415000D02*
X787470Y356714D01*
X733502Y275000D02*
X741436Y267066D01*
X715000Y275000D02*
X733502D01*
X700000Y290000D02*
X715000Y275000D01*
X733794Y267524D02*
X736356Y264962D01*
X717524Y267524D02*
X733794D01*
X700000Y250000D02*
X717524Y267524D01*
X736356Y229800D02*
Y264962D01*
Y229800D02*
X769106Y197050D01*
X731000Y339500D02*
X775000Y295500D01*
X722000Y325600D02*
X775000Y272600D01*
X704750Y311000D02*
X775600Y240150D01*
X613000Y311000D02*
X704750D01*
X722000Y325600D02*
Y378000D01*
X731000Y339500D02*
Y394000D01*
X811850Y186850D02*
X841500D01*
X806000Y181000D02*
X811850Y186850D01*
X767184Y181000D02*
X806000D01*
X804030Y175920D02*
X823700Y156250D01*
X765080Y175920D02*
X804030D01*
X769106Y197050D02*
X823700D01*
X372868Y409302D02*
Y517674D01*
X163924Y287999D02*
X262007Y189916D01*
X632830Y207170D02*
X650000Y190000D01*
X163924Y287999D02*
Y562026D01*
X181898Y580000D01*
X197862D01*
X389222Y369494D02*
Y535356D01*
X380840Y380000D02*
Y868096D01*
X372868Y409302D02*
X372953Y409216D01*
X365502Y300156D02*
Y527228D01*
X298798Y316916D02*
Y464744D01*
Y316916D02*
X368140Y247574D01*
X305042Y439598D02*
X306926D01*
X304640Y440000D02*
X305042Y439598D01*
X314718Y326395D02*
Y474650D01*
Y326395D02*
X393540Y247574D01*
X342232Y319710D02*
Y520624D01*
X387698Y278816D02*
X418940Y247574D01*
X355440Y400000D02*
Y868096D01*
X330040Y420000D02*
Y868096D01*
X279240Y460000D02*
Y868096D01*
X299306Y465252D02*
Y536372D01*
X306672Y442032D02*
Y866064D01*
X314718Y474650D02*
Y526974D01*
X304640Y440000D02*
X306672Y442032D01*
X372953Y278816D02*
X387698D01*
X342232Y309537D02*
X372953Y278816D01*
X342232Y309537D02*
Y319710D01*
X298798Y464744D02*
X299306Y465252D01*
X304640Y868096D02*
X306672Y866064D01*
X598920Y620920D02*
Y686104D01*
X590000Y675000D02*
Y766000D01*
X541920Y626920D02*
X590000Y675000D01*
X584920Y677104D02*
Y768104D01*
X539816Y632000D02*
X584920Y677104D01*
X543854Y666920D02*
X570080Y693146D01*
X518782Y666920D02*
X543854D01*
X565000Y695250D02*
Y796184D01*
X541750Y672000D02*
X565000Y695250D01*
X519862Y672000D02*
X541750D01*
X511862Y680000D02*
X519862Y672000D01*
X598920Y686104D02*
X611896Y699080D01*
X511862Y660000D02*
X518782Y666920D01*
X590000Y766000D02*
X599920Y775920D01*
X584920Y768104D02*
X597816Y781000D01*
X217010Y530530D02*
Y839140D01*
X206480Y520000D02*
X217010Y530530D01*
X203040Y853110D02*
X217010Y839140D01*
X228440Y521640D02*
Y868096D01*
X206800Y500000D02*
X228440Y521640D01*
X253840Y504114D02*
Y868096D01*
X229726Y480000D02*
X253840Y504114D01*
X406240Y360000D02*
Y868096D01*
X318356Y829488D02*
X318610Y829742D01*
X318356Y699440D02*
Y829488D01*
X287876Y841680D02*
X288130Y841934D01*
X287876Y687008D02*
Y841680D01*
X203040Y853110D02*
Y868096D01*
X197862Y520000D02*
X206480D01*
X197862Y500000D02*
X206800D01*
X197862Y480000D02*
X229726D01*
X431640Y340284D02*
Y868096D01*
X457040Y745160D02*
X482200Y720000D01*
X457040Y745160D02*
Y868096D01*
X482200Y720000D02*
X511862D01*
X488616Y740000D02*
X511862D01*
X482440Y746176D02*
X488616Y740000D01*
X482440Y746176D02*
Y868096D01*
X518782Y393080D02*
X550354D01*
X511862Y400000D02*
X518782Y393080D01*
X519862Y388000D02*
X548250D01*
X511862Y380000D02*
X519862Y388000D01*
X535670Y352830D02*
X618000Y270500D01*
X519032Y352830D02*
X535670D01*
X533566Y347750D02*
X615896Y265420D01*
X519612Y347750D02*
X533566D01*
X548250Y388000D02*
X586500Y349750D01*
X618000Y270500D02*
X630500D01*
X615896Y265420D02*
X631830D01*
X579250Y234750D02*
Y286684D01*
X551854Y314080D02*
X579250Y286684D01*
X574170Y232646D02*
Y284580D01*
X549750Y309000D02*
X574170Y284580D01*
X579250Y234750D02*
X601750Y212250D01*
X574170Y232646D02*
X599646Y207170D01*
X518758Y314080D02*
X551854D01*
X518270Y313592D02*
X518758Y314080D01*
X518270Y313592D02*
X518270D01*
X511862Y320000D02*
X518270Y313592D01*
X520862Y309000D02*
X549750D01*
X511862Y300000D02*
X520862Y309000D01*
X519862Y428000D02*
X548250D01*
X511862Y420000D02*
X519862Y428000D01*
X588604Y354830D02*
X633080D01*
X550354Y393080D02*
X588604Y354830D01*
X586500Y349750D02*
X632000D01*
X518782Y433080D02*
X550354D01*
X511862Y440000D02*
X518782Y433080D01*
X567080Y409170D02*
X632580D01*
X548250Y428000D02*
X567080Y409170D01*
X569184Y414250D02*
X632500D01*
X550354Y433080D02*
X569184Y414250D01*
X632500D02*
X650000Y431750D01*
X563420Y467670D02*
X588170Y492420D01*
X519532Y467670D02*
X563420D01*
X511862Y460000D02*
X519532Y467670D01*
X599646Y207170D02*
X632830D01*
X632250Y212250D02*
X650000Y230000D01*
X601750Y212250D02*
X632250D01*
X631830Y265420D02*
X647250Y250000D01*
X630500Y270500D02*
X650000Y290000D01*
X511862Y360000D02*
X519032Y352830D01*
X511862Y340000D02*
X519612Y347750D01*
X647250Y250000D02*
X650000D01*
X633080Y354830D02*
X650000Y371750D01*
X632000Y349750D02*
X650000Y331750D01*
X632580Y409170D02*
X650000Y391750D01*
X631080Y492420D02*
X650000Y473500D01*
X588170Y492420D02*
X631080D01*
X630524Y497500D02*
X646524Y513500D01*
X586066Y497500D02*
X630524D01*
X561316Y472750D02*
X586066Y497500D01*
X646524Y513500D02*
X650000D01*
X519112Y472750D02*
X561316D01*
X511862Y480000D02*
X519112Y472750D01*
X633580Y551670D02*
X650000Y535250D01*
X592170Y551670D02*
X633580D01*
X548170Y507670D02*
X592170Y551670D01*
X633250Y556750D02*
X650000Y573500D01*
X590066Y556750D02*
X633250D01*
X546066Y512750D02*
X590066Y556750D01*
X519112Y512750D02*
X546066D01*
X518670Y507670D02*
X548170D01*
X511862Y500862D02*
X518670Y507670D01*
X511862Y520000D02*
X519112Y512750D01*
X650000Y533500D02*
Y535250D01*
X511862Y500000D02*
Y500862D01*
X615000Y605566D02*
Y626750D01*
X519862Y548000D02*
X557434D01*
X615000Y605566D01*
X609920Y607670D02*
Y628854D01*
X555330Y553080D02*
X609920Y607670D01*
X518782Y553080D02*
X555330D01*
X511862Y560000D02*
X518782Y553080D01*
X511862Y540000D02*
X519862Y548000D01*
X620646Y639580D02*
X634330D01*
X609920Y628854D02*
X620646Y639580D01*
X622750Y634500D02*
X635000D01*
X615000Y626750D02*
X622750Y634500D01*
X634330Y639580D02*
X650000Y655250D01*
Y615250D02*
Y619500D01*
X635000Y634500D02*
X650000Y619500D01*
X604000Y618816D02*
Y684000D01*
X572104Y586920D02*
X604000Y618816D01*
X518782Y586920D02*
X572104D01*
X570000Y592000D02*
X598920Y620920D01*
X519862Y592000D02*
X570000D01*
X511862Y600000D02*
X519862Y592000D01*
X511862Y580000D02*
X518782Y586920D01*
X604000Y684000D02*
X614000Y694000D01*
X611896Y699080D02*
X633830D01*
X614000Y694000D02*
X631250D01*
X633830Y699080D02*
X650000Y715250D01*
X631250Y694000D02*
X650000Y675250D01*
X519862Y632000D02*
X539816D01*
X511862Y640000D02*
X519862Y632000D01*
X518782Y626920D02*
X541920D01*
X511862Y620000D02*
X518782Y626920D01*
X599920Y775920D02*
X631080D01*
X650000Y757000D01*
X597816Y781000D02*
X634000D01*
X650000Y797000D01*
X570080Y693146D02*
Y794080D01*
X565000Y796184D02*
X608816Y840000D01*
X610920Y834920D02*
X632080D01*
X570080Y794080D02*
X610920Y834920D01*
X608816Y840000D02*
X633000D01*
X650000Y857000D01*
X632080Y834920D02*
X650000Y817000D01*
X700000Y757000D02*
X718000Y775000D01*
X700000Y797000D02*
X716920Y780080D01*
X718000Y775000D02*
X743000D01*
X716920Y780080D02*
X740896D01*
X781116Y820300D01*
X743000Y775000D02*
X783000Y815000D01*
X700000Y573500D02*
X717500Y556000D01*
X742080D01*
X700000Y533500D02*
X717420Y550920D01*
X739976D01*
X766196Y524700D01*
X742080Y556000D02*
X768300Y529780D01*
X766196Y524700D02*
X823000D01*
X700000Y513500D02*
X717420Y496080D01*
X700000Y473500D02*
X716840Y490340D01*
X567276Y837362D02*
X613928Y884014D01*
X700000Y431750D02*
X716750Y415000D01*
X729184D01*
X700000Y391750D02*
X717420Y409170D01*
X727830D01*
X785366Y351634D01*
X700000Y230000D02*
X716000Y214000D01*
X700000Y190000D02*
X717250Y207250D01*
X733750D01*
X765080Y175920D01*
X716000Y214000D02*
X734184D01*
X767184Y181000D01*
X771170Y410014D02*
X775030D01*
X722184Y459000D02*
X771170Y410014D01*
X606000Y459000D02*
X722184D01*
X262091Y190000D02*
X474000D01*
X179186Y740000D02*
X197862D01*
X153000Y264962D02*
Y265000D01*
X252214Y165786D02*
X465930D01*
X153000Y265000D02*
X252214Y165786D01*
X151478Y266522D02*
X153000Y265000D01*
X267084Y174422D02*
X573880D01*
X151478Y266522D02*
Y673616D01*
X197862Y720000D01*
X156558Y658696D02*
X197862Y700000D01*
X156558Y284948D02*
Y658696D01*
Y284948D02*
X267084Y174422D01*
X250179Y157404D02*
X357726D01*
X145634Y261949D02*
X250179Y157404D01*
X145634Y261949D02*
Y706448D01*
X179186Y740000D01*
X140554Y708552D02*
X182980Y750978D01*
X140554Y254688D02*
Y708552D01*
Y254688D02*
X250030Y145212D01*
X741436Y232400D02*
Y267066D01*
Y232400D02*
X766586Y207250D01*
X841500D01*
X182980Y750978D02*
Y785118D01*
X197862Y800000D01*
X177640Y855378D02*
Y868096D01*
Y855378D02*
X211328Y821690D01*
Y773466D02*
Y821690D01*
X197862Y760000D02*
X211328Y773466D01*
D20*
X152240Y786778D02*
Y868096D01*
X491500Y595978D02*
X492092Y596570D01*
X491500Y204750D02*
Y595978D01*
X511862Y780000D02*
X524900D01*
X533240Y788340D01*
Y868096D01*
X128000Y762538D02*
X152240Y786778D01*
X128000Y211000D02*
Y762538D01*
D24*
X95344Y38608D02*
D03*
D25*
X130904Y84328D02*
D03*
X59784D02*
D03*
D26*
X95000Y753403D02*
D03*
Y334601D02*
D03*
D27*
Y781131D02*
D03*
Y864316D02*
D03*
X69600Y767373D02*
D03*
Y850557D02*
D03*
Y795101D02*
D03*
Y822829D02*
D03*
X95000Y362329D02*
D03*
Y445514D02*
D03*
X69600Y348571D02*
D03*
Y431755D02*
D03*
Y376299D02*
D03*
Y404027D02*
D03*
D28*
X95000Y808856D02*
D03*
Y836586D02*
D03*
Y390054D02*
D03*
Y417784D02*
D03*
D29*
X82300Y683764D02*
D03*
Y933742D02*
D03*
Y264962D02*
D03*
Y514940D02*
D03*
D30*
X830284Y252850D02*
D03*
Y90250D02*
D03*
X830600Y259200D02*
D03*
X763980Y499200D02*
D03*
Y657200D02*
D03*
X830600Y897200D02*
D03*
D31*
X865884Y108050D02*
D03*
Y235050D02*
D03*
D32*
X840484Y207250D02*
D03*
X822684Y197050D02*
D03*
X840484Y186850D02*
D03*
X822684Y176650D02*
D03*
X840484Y166450D02*
D03*
X822684Y156250D02*
D03*
X840484Y146050D02*
D03*
X822684Y135850D02*
D03*
X774584Y240150D02*
D03*
Y217250D02*
D03*
Y125850D02*
D03*
Y102950D02*
D03*
X511862Y680000D02*
D03*
Y660000D02*
D03*
Y640000D02*
D03*
Y620000D02*
D03*
Y600000D02*
D03*
Y580000D02*
D03*
Y560000D02*
D03*
Y540000D02*
D03*
Y520000D02*
D03*
Y500000D02*
D03*
Y480000D02*
D03*
Y460000D02*
D03*
Y440000D02*
D03*
Y400000D02*
D03*
Y380000D02*
D03*
Y360000D02*
D03*
Y340000D02*
D03*
Y320000D02*
D03*
Y740000D02*
D03*
Y760000D02*
D03*
Y780000D02*
D03*
Y800000D02*
D03*
X197862Y800000D02*
D03*
Y780000D02*
D03*
Y760000D02*
D03*
Y740000D02*
D03*
Y300000D02*
D03*
Y320000D02*
D03*
Y340000D02*
D03*
Y360000D02*
D03*
Y380000D02*
D03*
Y400000D02*
D03*
Y420000D02*
D03*
Y440000D02*
D03*
Y460000D02*
D03*
Y480000D02*
D03*
Y500000D02*
D03*
Y520000D02*
D03*
Y540000D02*
D03*
Y560000D02*
D03*
Y580000D02*
D03*
Y600000D02*
D03*
Y620000D02*
D03*
Y640000D02*
D03*
Y660000D02*
D03*
Y680000D02*
D03*
X41750Y148500D02*
D03*
Y169500D02*
D03*
D33*
X840780Y377114D02*
D03*
X823000Y366700D02*
D03*
X840780Y356714D02*
D03*
X823000Y346300D02*
D03*
X840780Y336314D02*
D03*
X823000Y325900D02*
D03*
X840780Y315914D02*
D03*
X823000Y305500D02*
D03*
X840780Y535114D02*
D03*
X823000Y524700D02*
D03*
X840780Y514714D02*
D03*
X823000Y504300D02*
D03*
X840780Y494314D02*
D03*
X823000Y483900D02*
D03*
X840780Y473914D02*
D03*
X823000Y463500D02*
D03*
X840780Y693114D02*
D03*
X823000Y682700D02*
D03*
X840780Y672714D02*
D03*
X823000Y662300D02*
D03*
X840780Y652314D02*
D03*
X823000Y641900D02*
D03*
X840780Y631914D02*
D03*
X823000Y621500D02*
D03*
Y779500D02*
D03*
X840780Y789914D02*
D03*
X823000Y799900D02*
D03*
X840780Y810314D02*
D03*
X823000Y820300D02*
D03*
X840780Y830714D02*
D03*
X823000Y840700D02*
D03*
X840780Y851114D02*
D03*
D34*
X775030Y410014D02*
D03*
Y387114D02*
D03*
X775000Y295500D02*
D03*
Y272600D02*
D03*
X775030Y568014D02*
D03*
Y545114D02*
D03*
X775000Y453500D02*
D03*
Y430600D02*
D03*
X775030Y726014D02*
D03*
Y703114D02*
D03*
X775000Y611500D02*
D03*
Y588600D02*
D03*
Y746600D02*
D03*
Y769500D02*
D03*
X775030Y861114D02*
D03*
Y884014D02*
D03*
X177640Y868096D02*
D03*
X203040D02*
D03*
X228440D02*
D03*
X253840D02*
D03*
X279240D02*
D03*
X304640D02*
D03*
X330040D02*
D03*
X355440D02*
D03*
X380840D02*
D03*
X406240D02*
D03*
X431640D02*
D03*
X457040D02*
D03*
X482440D02*
D03*
X507840D02*
D03*
X533240D02*
D03*
X469740Y247574D02*
D03*
X444340D02*
D03*
X418940D02*
D03*
X393540D02*
D03*
X368140D02*
D03*
D35*
X866200Y878700D02*
D03*
Y277700D02*
D03*
D36*
X152240Y868096D02*
D03*
X342740Y247574D02*
D03*
D37*
X650000Y270000D02*
D03*
Y250000D02*
D03*
Y230000D02*
D03*
Y210000D02*
D03*
Y190000D02*
D03*
X700000D02*
D03*
Y210000D02*
D03*
Y230000D02*
D03*
Y250000D02*
D03*
Y270000D02*
D03*
Y290000D02*
D03*
X650000Y411750D02*
D03*
Y391750D02*
D03*
Y371750D02*
D03*
Y351750D02*
D03*
Y331750D02*
D03*
X700000D02*
D03*
Y351750D02*
D03*
Y371750D02*
D03*
Y391750D02*
D03*
Y411750D02*
D03*
Y431750D02*
D03*
X650000Y553500D02*
D03*
Y533500D02*
D03*
Y513500D02*
D03*
Y493500D02*
D03*
Y473500D02*
D03*
X700000D02*
D03*
Y493500D02*
D03*
Y513500D02*
D03*
Y533500D02*
D03*
Y553500D02*
D03*
Y573500D02*
D03*
X650000Y695250D02*
D03*
Y675250D02*
D03*
Y655250D02*
D03*
Y635250D02*
D03*
Y615250D02*
D03*
X700000D02*
D03*
Y635250D02*
D03*
Y655250D02*
D03*
Y675250D02*
D03*
Y695250D02*
D03*
Y715250D02*
D03*
X650000Y837000D02*
D03*
Y817000D02*
D03*
Y797000D02*
D03*
Y777000D02*
D03*
Y757000D02*
D03*
X700000D02*
D03*
Y777000D02*
D03*
Y797000D02*
D03*
Y817000D02*
D03*
Y837000D02*
D03*
Y857000D02*
D03*
D38*
X511862Y300000D02*
D03*
D39*
X650000Y290000D02*
D03*
Y431750D02*
D03*
Y573500D02*
D03*
Y715250D02*
D03*
Y857000D02*
D03*
D40*
X15000Y206816D02*
D03*
X33000Y191816D02*
D03*
Y221816D02*
D03*
X15000Y624316D02*
D03*
X33000Y609316D02*
D03*
Y639316D02*
D03*
D41*
X76000Y593000D02*
D03*
X661000Y936000D02*
D03*
X666000Y52000D02*
D03*
X186000Y51000D02*
D03*
X151000Y934742D02*
D03*
D42*
X733000Y665000D02*
D03*
X582339Y512750D02*
D03*
X465930Y165786D02*
D03*
X357726Y157404D02*
D03*
X250030Y145212D02*
D03*
X388968Y369494D02*
D03*
X389222Y535356D02*
D03*
X372966Y517576D02*
D03*
X372953Y409216D02*
D03*
X365346Y300000D02*
D03*
X306926Y439598D02*
D03*
X365502Y527228D02*
D03*
X342232Y319710D02*
D03*
Y520624D02*
D03*
X298798Y464744D02*
D03*
X299306Y536372D02*
D03*
X314718Y474650D02*
D03*
Y526974D02*
D03*
X492092Y596570D02*
D03*
X491500Y204750D02*
D03*
X431640Y340284D02*
D03*
X406240Y360000D02*
D03*
X380840Y380000D02*
D03*
X355440Y400000D02*
D03*
X330040Y420000D02*
D03*
X279240Y460000D02*
D03*
X318610Y829742D02*
D03*
X318356Y699440D02*
D03*
X288130Y841934D02*
D03*
X287876Y687008D02*
D03*
X567276Y837362D02*
D03*
X743000Y682000D02*
D03*
X623014Y726014D02*
D03*
X627000Y591000D02*
D03*
X731000Y394000D02*
D03*
X722000Y378000D02*
D03*
X606000Y459000D02*
D03*
X573880Y174422D02*
D03*
X474000Y190000D02*
D03*
X153000Y265000D02*
D03*
X128618Y216449D02*
D03*
X128000Y224949D02*
D03*
Y206949D02*
D03*
X145000Y216699D02*
D03*
D43*
X613000Y311000D02*
D03*
X10200Y980000D02*
D03*
X40000D02*
D03*
X70000D02*
D03*
X100000D02*
D03*
X219800D02*
D03*
X189800D02*
D03*
X159800D02*
D03*
X130000D02*
D03*
X339830D02*
D03*
X309830D02*
D03*
X279830D02*
D03*
X250030D02*
D03*
X459800D02*
D03*
X429800D02*
D03*
X399800D02*
D03*
X370000D02*
D03*
X579800D02*
D03*
X549800D02*
D03*
X519800D02*
D03*
X490000D02*
D03*
X699800D02*
D03*
X669800D02*
D03*
X639800D02*
D03*
X610000D02*
D03*
X819800D02*
D03*
X789800D02*
D03*
X759800D02*
D03*
X730000D02*
D03*
X850000D02*
D03*
X880000D02*
D03*
Y10000D02*
D03*
X850000D02*
D03*
X730000D02*
D03*
X759800D02*
D03*
X789800D02*
D03*
X819800D02*
D03*
X610000D02*
D03*
X639800D02*
D03*
X669800D02*
D03*
X699800D02*
D03*
X490000D02*
D03*
X519800D02*
D03*
X549800D02*
D03*
X579800D02*
D03*
X370000D02*
D03*
X399800D02*
D03*
X429800D02*
D03*
X459800D02*
D03*
X250030D02*
D03*
X279830D02*
D03*
X309830D02*
D03*
X339830D02*
D03*
X130000D02*
D03*
X159800D02*
D03*
X189800D02*
D03*
X219800D02*
D03*
X100000D02*
D03*
X70000D02*
D03*
X40000D02*
D03*
X10200D02*
D03*
Y950000D02*
D03*
Y920000D02*
D03*
Y800000D02*
D03*
Y829800D02*
D03*
Y859800D02*
D03*
Y889800D02*
D03*
Y680000D02*
D03*
Y709800D02*
D03*
Y739800D02*
D03*
Y769800D02*
D03*
Y560000D02*
D03*
Y589800D02*
D03*
Y440000D02*
D03*
Y469800D02*
D03*
Y499800D02*
D03*
Y529800D02*
D03*
Y320030D02*
D03*
Y349830D02*
D03*
Y379830D02*
D03*
Y409830D02*
D03*
Y229800D02*
D03*
Y259800D02*
D03*
Y289800D02*
D03*
Y110000D02*
D03*
Y80200D02*
D03*
X10000Y38548D02*
D03*
X880000Y50000D02*
D03*
X850000Y51000D02*
D03*
X880000Y930000D02*
D03*
X789800D02*
D03*
X613297Y857000D02*
D03*
X560000D02*
D03*
X553090Y810314D02*
D03*
X606000Y804220D02*
D03*
X623014Y753403D02*
D03*
X545282Y724220D02*
D03*
X606000Y716196D02*
D03*
X573880Y629844D02*
D03*
X470000Y631344D02*
D03*
Y684220D02*
D03*
X460000Y548878D02*
D03*
X627000Y570662D02*
D03*
X623014Y474722D02*
D03*
X590000Y434722D02*
D03*
X600000Y384220D02*
D03*
X590000Y331750D02*
D03*
X533118Y247574D02*
D03*
X610000Y240150D02*
D03*
X600000Y260000D02*
D03*
X623014Y190000D02*
D03*
X553090Y227048D02*
D03*
X318610Y254024D02*
D03*
X250030Y245608D02*
D03*
X228440Y259200D02*
D03*
X153000Y130000D02*
D03*
X197862Y119520D02*
D03*
X110000Y565388D02*
D03*
X107132Y628758D02*
D03*
X124343Y887658D02*
D03*
X221996Y207780D02*
D03*
X201676Y228346D02*
D03*
X298798Y242062D02*
D03*
X146558Y179578D02*
D03*
D44*
X128904Y85752D02*
Y206949D01*
D45*
X128000Y216699D02*
Y222949D01*
D46*
X135041Y215449D02*
D03*
D47*
X511862Y420000D02*
D03*
Y700000D02*
D03*
Y720000D02*
D03*
X197862Y720000D02*
D03*
Y700000D02*
D03*
M02*
