%FSLAX44Y44*%
%MOMM*%
G71*
G01*
G75*
G04 Layer_Color=32896*
%ADD10R,0.6000X2.2000*%
%ADD11R,2.0000X1.5000*%
%ADD12R,0.8000X0.6000*%
%ADD13R,0.6000X0.8000*%
%ADD14R,1.2700X1.5240*%
%ADD15R,1.2700X1.2700*%
%ADD16R,0.8000X0.9000*%
%ADD17R,0.8000X0.4000*%
%ADD18O,3.3000X1.5000*%
%ADD19C,0.2540*%
%ADD20C,0.7620*%
%ADD21C,0.5080*%
%ADD22R,2.6590X2.6992*%
%ADD23R,3.6830X1.3208*%
%ADD24O,5.0800X2.5400*%
%ADD25O,2.5400X5.0800*%
%ADD26P,1.7046X8X112.5*%
%ADD27C,1.5748*%
%ADD28C,1.5750*%
%ADD29O,3.0000X5.0000*%
%ADD30C,2.5000*%
%ADD31C,3.2500*%
%ADD32C,1.2000*%
%ADD33O,1.5000X1.2000*%
%ADD34C,1.5000*%
%ADD35C,3.2000*%
%ADD36R,1.5000X1.5000*%
%ADD37C,1.3000*%
%ADD38R,1.2000X1.2000*%
%ADD39R,1.3000X1.3000*%
%ADD40O,0.9000X1.4000*%
%ADD41C,4.0000*%
%ADD42C,0.7112*%
%ADD43C,0.8000*%
%ADD44C,1.2700*%
%ADD45C,1.0160*%
%ADD46R,2.6082X2.7000*%
%ADD47C,1.1000*%
%ADD48C,0.2000*%
%ADD49C,0.2500*%
%ADD50C,0.2032*%
%ADD51C,0.1500*%
%ADD52C,0.1001*%
%ADD53C,0.1000*%
%ADD54C,0.3048*%
%ADD55C,0.1270*%
%ADD56C,0.1016*%
%ADD57C,0.1200*%
%ADD58C,0.1524*%
%ADD59R,0.8032X2.4032*%
%ADD60R,2.2032X1.7032*%
%ADD61R,1.0032X0.8032*%
%ADD62R,0.8032X1.0032*%
%ADD63R,1.4732X1.7272*%
%ADD64R,1.4732X1.4732*%
%ADD65R,1.0032X1.1032*%
%ADD66R,1.0032X0.6032*%
%ADD67O,3.5032X1.7032*%
%ADD68O,5.2832X2.7432*%
%ADD69O,2.7432X5.2832*%
%ADD70P,1.9245X8X112.5*%
%ADD71C,1.7780*%
%ADD72C,1.7782*%
%ADD73O,3.2032X5.2032*%
%ADD74C,2.7032*%
%ADD75C,3.4532*%
%ADD76C,1.4032*%
%ADD77O,1.7032X1.4032*%
%ADD78C,1.7032*%
%ADD79C,3.4032*%
%ADD80R,1.7032X1.7032*%
%ADD81C,1.5032*%
%ADD82R,1.4032X1.4032*%
%ADD83R,1.5032X1.5032*%
%ADD84O,1.1032X1.6032*%
%ADD85C,4.2032*%
%ADD86C,1.3032*%
D51*
X327002Y925995D02*
X335000D01*
X327002Y925614D02*
X335000D01*
X327002Y927137D02*
Y924471D01*
X335000Y927137D02*
Y924471D01*
X328525Y922643D02*
X328906Y922262D01*
X329287Y922643D01*
X328906Y923024D01*
X328525D01*
X327763Y922643D01*
X327383Y922262D01*
X327002Y921120D01*
Y919596D01*
X327383Y918454D01*
X327763Y918073D01*
X328525Y917692D01*
X329287D01*
X330049Y918073D01*
X330810Y919215D01*
X331572Y921120D01*
X331953Y921881D01*
X332715Y922643D01*
X333857Y923024D01*
X335000D01*
X327002Y919596D02*
X327383Y918835D01*
X327763Y918454D01*
X328525Y918073D01*
X329287D01*
X330049Y918454D01*
X330810Y919596D01*
X331572Y921120D01*
X334238Y923024D02*
X333857Y922643D01*
Y921881D01*
X334619Y919977D01*
Y918835D01*
X334238Y918073D01*
X333857Y917692D01*
X333096D01*
X333857Y921881D02*
X335000Y919977D01*
Y918454D01*
X334619Y918073D01*
X333857Y917692D01*
X328144Y911179D02*
X329287Y910798D01*
X327002D01*
X328144Y911179D01*
X327383Y911941D01*
X327002Y913083D01*
Y913845D01*
X327383Y914988D01*
X328144Y915749D01*
X328906Y916130D01*
X330049Y916511D01*
X331953D01*
X333096Y916130D01*
X333857Y915749D01*
X334619Y914988D01*
X335000Y913845D01*
Y913083D01*
X334619Y911941D01*
X333857Y911179D01*
X333096Y910798D01*
X327002Y913845D02*
X327383Y914607D01*
X328144Y915368D01*
X328906Y915749D01*
X330049Y916130D01*
X331953D01*
X333096Y915749D01*
X333857Y915368D01*
X334619Y914607D01*
X335000Y913845D01*
X327002Y908513D02*
X335000D01*
X327002Y908132D02*
X335000D01*
X327002Y909656D02*
Y905847D01*
X327383Y904704D01*
X328144Y903942D01*
X328906Y903561D01*
X330049Y903181D01*
X331953D01*
X333096Y903561D01*
X333857Y903942D01*
X334619Y904704D01*
X335000Y905847D01*
Y909656D01*
X327002Y905847D02*
X327383Y905085D01*
X328144Y904323D01*
X328906Y903942D01*
X330049Y903561D01*
X331953D01*
X333096Y903942D01*
X333857Y904323D01*
X334619Y905085D01*
X335000Y905847D01*
X327002Y898686D02*
X335000Y901352D01*
X327002Y898686D02*
X335000Y896020D01*
X328144Y898686D02*
X335000Y896401D01*
X332715Y900591D02*
Y897163D01*
X335000Y902114D02*
Y899829D01*
Y897544D02*
Y895258D01*
X327002Y891564D02*
X335000D01*
X327002Y891183D02*
X335000D01*
X327002Y893849D02*
X329287Y894230D01*
X327002D01*
Y888517D01*
X329287D01*
X327002Y888898D01*
X335000Y892707D02*
Y890041D01*
X327002Y886232D02*
X335000D01*
X327002Y885851D02*
X335000D01*
X329287Y883566D02*
X332334D01*
X327002Y887374D02*
Y881281D01*
X329287D01*
X327002Y881661D01*
X330810Y885851D02*
Y883566D01*
X335000Y887374D02*
Y881281D01*
X332715D01*
X335000Y881661D01*
X478506Y894916D02*
X486504D01*
X478506Y894535D02*
X486504D01*
X478506Y896058D02*
Y892250D01*
X478887Y891107D01*
X479648Y890345D01*
X480410Y889964D01*
X481553Y889584D01*
X483457D01*
X484600Y889964D01*
X485361Y890345D01*
X486123Y891107D01*
X486504Y892250D01*
Y896058D01*
X478506Y892250D02*
X478887Y891488D01*
X479648Y890726D01*
X480410Y890345D01*
X481553Y889964D01*
X483457D01*
X484600Y890345D01*
X485361Y890726D01*
X486123Y891488D01*
X486504Y892250D01*
X478506Y887374D02*
X486504D01*
X478506Y886994D02*
X485742Y882423D01*
X479267Y886994D02*
X486504Y882423D01*
X478506D02*
X486504D01*
X478506Y888517D02*
Y886994D01*
Y883566D02*
Y881281D01*
X486504Y888517D02*
Y886232D01*
X453106Y894154D02*
X461104D01*
X453106Y893773D02*
X461104D01*
X453106Y895297D02*
Y891488D01*
X453487Y890345D01*
X454248Y889584D01*
X455010Y889203D01*
X456153Y888822D01*
X458057D01*
X459200Y889203D01*
X459961Y889584D01*
X460723Y890345D01*
X461104Y891488D01*
Y895297D01*
X453106Y891488D02*
X453487Y890726D01*
X454248Y889964D01*
X455010Y889584D01*
X456153Y889203D01*
X458057D01*
X459200Y889584D01*
X459961Y889964D01*
X460723Y890726D01*
X461104Y891488D01*
X453106Y886613D02*
X461104D01*
X453106Y886232D02*
X461104D01*
X453106Y887755D02*
Y883185D01*
X453487Y882042D01*
X453867Y881661D01*
X454629Y881281D01*
X455772D01*
X456534Y881661D01*
X456914Y882042D01*
X457295Y883185D01*
Y886232D01*
X453106Y883185D02*
X453487Y882423D01*
X453867Y882042D01*
X454629Y881661D01*
X455772D01*
X456534Y882042D01*
X456914Y882423D01*
X457295Y883185D01*
X461104Y887755D02*
Y885089D01*
X428019Y905428D02*
X436017D01*
X428019Y905047D02*
X434875Y902762D01*
X428019Y905428D02*
X436017Y902762D01*
X428019Y900096D02*
X436017Y902762D01*
X428019Y900096D02*
X436017D01*
X428019Y899715D02*
X436017D01*
X428019Y906570D02*
Y905047D01*
Y900096D02*
Y898572D01*
X436017Y906570D02*
Y904285D01*
Y901238D02*
Y898572D01*
X428019Y894992D02*
X428400Y896134D01*
X429161Y896896D01*
X429923Y897277D01*
X431447Y897658D01*
X432589D01*
X434113Y897277D01*
X434875Y896896D01*
X435636Y896134D01*
X436017Y894992D01*
Y894230D01*
X435636Y893087D01*
X434875Y892326D01*
X434113Y891945D01*
X432589Y891564D01*
X431447D01*
X429923Y891945D01*
X429161Y892326D01*
X428400Y893087D01*
X428019Y894230D01*
Y894992D01*
X428400Y895754D01*
X429161Y896515D01*
X429923Y896896D01*
X431447Y897277D01*
X432589D01*
X434113Y896896D01*
X434875Y896515D01*
X435636Y895754D01*
X436017Y894992D01*
Y894230D02*
X435636Y893468D01*
X434875Y892707D01*
X434113Y892326D01*
X432589Y891945D01*
X431447D01*
X429923Y892326D01*
X429161Y892707D01*
X428400Y893468D01*
X428019Y894230D01*
X429161Y885508D02*
X428019Y885127D01*
X430304D01*
X429161Y885508D01*
X428400Y886270D01*
X428019Y887412D01*
Y888555D01*
X428400Y889698D01*
X429161Y890460D01*
X429923D01*
X430685Y890079D01*
X431066Y889698D01*
X431447Y888936D01*
X432209Y886651D01*
X432589Y885889D01*
X433351Y885127D01*
X429923Y890460D02*
X430685Y889698D01*
X431066Y888936D01*
X431828Y886651D01*
X432209Y885889D01*
X432589Y885508D01*
X433351Y885127D01*
X434875D01*
X435636Y885889D01*
X436017Y887032D01*
Y888174D01*
X435636Y889317D01*
X434875Y890079D01*
X433732Y890460D01*
X436017D01*
X434875Y890079D01*
X428019Y882804D02*
X436017D01*
X428019Y882423D02*
X436017D01*
X428019Y883947D02*
Y881281D01*
X436017Y883947D02*
Y881281D01*
X402507Y905770D02*
X410505D01*
X402507Y905390D02*
X409362Y903104D01*
X402507Y905770D02*
X410505Y903104D01*
X402507Y900438D02*
X410505Y903104D01*
X402507Y900438D02*
X410505D01*
X402507Y900057D02*
X410505D01*
X402507Y906913D02*
Y905390D01*
Y900438D02*
Y898915D01*
X410505Y906913D02*
Y904628D01*
Y901581D02*
Y898915D01*
X402507Y896858D02*
X410505D01*
X402507Y896477D02*
X410505D01*
X402507Y898001D02*
Y895335D01*
X410505Y898001D02*
Y895335D01*
X403649Y888936D02*
X402507Y888555D01*
X404792D01*
X403649Y888936D01*
X402888Y889698D01*
X402507Y890840D01*
Y891983D01*
X402888Y893126D01*
X403649Y893887D01*
X404411D01*
X405173Y893506D01*
X405554Y893126D01*
X405935Y892364D01*
X406696Y890079D01*
X407077Y889317D01*
X407839Y888555D01*
X404411Y893887D02*
X405173Y893126D01*
X405554Y892364D01*
X406315Y890079D01*
X406696Y889317D01*
X407077Y888936D01*
X407839Y888555D01*
X409362D01*
X410124Y889317D01*
X410505Y890460D01*
Y891602D01*
X410124Y892745D01*
X409362Y893506D01*
X408220Y893887D01*
X410505D01*
X409362Y893506D01*
X402507Y884708D02*
X402888Y885851D01*
X403649Y886613D01*
X404411Y886994D01*
X405935Y887374D01*
X407077D01*
X408601Y886994D01*
X409362Y886613D01*
X410124Y885851D01*
X410505Y884708D01*
Y883947D01*
X410124Y882804D01*
X409362Y882042D01*
X408601Y881661D01*
X407077Y881281D01*
X405935D01*
X404411Y881661D01*
X403649Y882042D01*
X402888Y882804D01*
X402507Y883947D01*
Y884708D01*
X402888Y885470D01*
X403649Y886232D01*
X404411Y886613D01*
X405935Y886994D01*
X407077D01*
X408601Y886613D01*
X409362Y886232D01*
X410124Y885470D01*
X410505Y884708D01*
Y883947D02*
X410124Y883185D01*
X409362Y882423D01*
X408601Y882042D01*
X407077Y881661D01*
X405935D01*
X404411Y882042D01*
X403649Y882423D01*
X402888Y883185D01*
X402507Y883947D01*
X378137Y915445D02*
X376995Y915064D01*
X379280D01*
X378137Y915445D01*
X377376Y916206D01*
X376995Y917349D01*
Y918492D01*
X377376Y919634D01*
X378137Y920396D01*
X378899D01*
X379661Y920015D01*
X380042Y919634D01*
X380423Y918873D01*
X381184Y916587D01*
X381565Y915826D01*
X382327Y915064D01*
X378899Y920396D02*
X379661Y919634D01*
X380042Y918873D01*
X380803Y916587D01*
X381184Y915826D01*
X381565Y915445D01*
X382327Y915064D01*
X383850D01*
X384612Y915826D01*
X384993Y916968D01*
Y918111D01*
X384612Y919253D01*
X383850Y920015D01*
X382708Y920396D01*
X384993D01*
X383850Y920015D01*
X376995Y912740D02*
X384993D01*
X376995Y912360D02*
X384993D01*
X376995Y913883D02*
Y909313D01*
X377376Y908170D01*
X377756Y907789D01*
X378518Y907408D01*
X379661D01*
X380423Y907789D01*
X380803Y908170D01*
X381184Y909313D01*
Y912360D01*
X376995Y909313D02*
X377376Y908551D01*
X377756Y908170D01*
X378518Y907789D01*
X379661D01*
X380423Y908170D01*
X380803Y908551D01*
X381184Y909313D01*
X384993Y913883D02*
Y911217D01*
X376995Y905199D02*
X384993D01*
X376995Y904818D02*
X384993D01*
X376995Y906342D02*
Y903676D01*
X384993Y906342D02*
Y903676D01*
X378137Y896896D02*
X379280Y896515D01*
X376995D01*
X378137Y896896D01*
X377376Y897658D01*
X376995Y898801D01*
Y899562D01*
X377376Y900705D01*
X378137Y901467D01*
X378899Y901848D01*
X380042Y902228D01*
X381946D01*
X383089Y901848D01*
X383850Y901467D01*
X384612Y900705D01*
X384993Y899562D01*
Y898801D01*
X384612Y897658D01*
X383850Y896896D01*
X383089Y896515D01*
X376995Y899562D02*
X377376Y900324D01*
X378137Y901086D01*
X378899Y901467D01*
X380042Y901848D01*
X381946D01*
X383089Y901467D01*
X383850Y901086D01*
X384612Y900324D01*
X384993Y899562D01*
X376995Y894230D02*
X384993D01*
X376995Y893849D02*
X384993D01*
X376995Y895373D02*
Y892707D01*
X384993Y895373D02*
Y889660D01*
X382708D01*
X384993Y890041D01*
X376995Y887374D02*
X384993D01*
X376995Y886994D02*
X384993D01*
X376995Y882042D02*
X381946Y886994D01*
X380423Y885089D02*
X384993Y882042D01*
X380423Y885470D02*
X384993Y882423D01*
X376995Y888517D02*
Y885851D01*
Y883566D02*
Y881281D01*
X384993Y888517D02*
Y885851D01*
Y883566D02*
Y881281D01*
X352625Y892745D02*
X353768Y892364D01*
X351483D01*
X352625Y892745D01*
X351864Y893506D01*
X351483Y894649D01*
Y895411D01*
X351864Y896553D01*
X352625Y897315D01*
X353387Y897696D01*
X354530Y898077D01*
X356434D01*
X357576Y897696D01*
X358338Y897315D01*
X359100Y896553D01*
X359481Y895411D01*
Y894649D01*
X359100Y893506D01*
X358338Y892745D01*
X357576Y892364D01*
X351483Y895411D02*
X351864Y896172D01*
X352625Y896934D01*
X353387Y897315D01*
X354530Y897696D01*
X356434D01*
X357576Y897315D01*
X358338Y896934D01*
X359100Y896172D01*
X359481Y895411D01*
X352625Y886270D02*
X351483Y885889D01*
X353768D01*
X352625Y886270D01*
X351864Y887032D01*
X351483Y888174D01*
Y889317D01*
X351864Y890460D01*
X352625Y891221D01*
X353387D01*
X354149Y890840D01*
X354530Y890460D01*
X354910Y889698D01*
X355672Y887412D01*
X356053Y886651D01*
X356815Y885889D01*
X353387Y891221D02*
X354149Y890460D01*
X354530Y889698D01*
X355291Y887412D01*
X355672Y886651D01*
X356053Y886270D01*
X356815Y885889D01*
X358338D01*
X359100Y886651D01*
X359481Y887793D01*
Y888936D01*
X359100Y890079D01*
X358338Y890840D01*
X357196Y891221D01*
X359481D01*
X358338Y890840D01*
X353006Y884708D02*
X352625Y883947D01*
X351483Y882804D01*
X359481D01*
X351864Y883185D02*
X359481D01*
Y884708D02*
Y881281D01*
X300458Y918568D02*
X308457D01*
X300458Y918187D02*
X308457D01*
X300458Y919710D02*
Y917044D01*
X308457Y919710D02*
Y917044D01*
X301982Y915216D02*
X302363Y914835D01*
X302744Y915216D01*
X302363Y915597D01*
X301982D01*
X301220Y915216D01*
X300839Y914835D01*
X300458Y913693D01*
Y912169D01*
X300839Y911027D01*
X301220Y910646D01*
X301982Y910265D01*
X302744D01*
X303505Y910646D01*
X304267Y911788D01*
X305029Y913693D01*
X305410Y914454D01*
X306171Y915216D01*
X307314Y915597D01*
X308457D01*
X300458Y912169D02*
X300839Y911407D01*
X301220Y911027D01*
X301982Y910646D01*
X302744D01*
X303505Y911027D01*
X304267Y912169D01*
X305029Y913693D01*
X307695Y915597D02*
X307314Y915216D01*
Y914454D01*
X308076Y912550D01*
Y911407D01*
X307695Y910646D01*
X307314Y910265D01*
X306552D01*
X307314Y914454D02*
X308457Y912550D01*
Y911027D01*
X308076Y910646D01*
X307314Y910265D01*
X301601Y903752D02*
X302744Y903371D01*
X300458D01*
X301601Y903752D01*
X300839Y904514D01*
X300458Y905656D01*
Y906418D01*
X300839Y907561D01*
X301601Y908322D01*
X302363Y908703D01*
X303505Y909084D01*
X305410D01*
X306552Y908703D01*
X307314Y908322D01*
X308076Y907561D01*
X308457Y906418D01*
Y905656D01*
X308076Y904514D01*
X307314Y903752D01*
X306552Y903371D01*
X300458Y906418D02*
X300839Y907180D01*
X301601Y907942D01*
X302363Y908322D01*
X303505Y908703D01*
X305410D01*
X306552Y908322D01*
X307314Y907942D01*
X308076Y907180D01*
X308457Y906418D01*
X301601Y896896D02*
X302744Y896515D01*
X300458D01*
X301601Y896896D01*
X300839Y897658D01*
X300458Y898801D01*
Y899562D01*
X300839Y900705D01*
X301601Y901467D01*
X302363Y901848D01*
X303505Y902228D01*
X305410D01*
X306552Y901848D01*
X307314Y901467D01*
X308076Y900705D01*
X308457Y899562D01*
Y898801D01*
X308076Y897658D01*
X307314Y896896D01*
X306552Y896515D01*
X300458Y899562D02*
X300839Y900324D01*
X301601Y901086D01*
X302363Y901467D01*
X303505Y901848D01*
X305410D01*
X306552Y901467D01*
X307314Y901086D01*
X308076Y900324D01*
X308457Y899562D01*
X300458Y894230D02*
X308457D01*
X300458Y893849D02*
X308457D01*
X300458Y895373D02*
Y892707D01*
X308457Y895373D02*
Y889660D01*
X306171D01*
X308457Y890041D01*
X300458Y887374D02*
X308457D01*
X300458Y886994D02*
X308457D01*
X300458Y882042D02*
X305410Y886994D01*
X303886Y885089D02*
X308457Y882042D01*
X303886Y885470D02*
X308457Y882423D01*
X300458Y888517D02*
Y885851D01*
Y883566D02*
Y881281D01*
X308457Y888517D02*
Y885851D01*
Y883566D02*
Y881281D01*
X274946Y918225D02*
X282945D01*
X274946Y917844D02*
X282945D01*
X274946Y919368D02*
Y916702D01*
X282945Y919368D02*
Y916702D01*
X276470Y914873D02*
X276851Y914492D01*
X277232Y914873D01*
X276851Y915254D01*
X276470D01*
X275708Y914873D01*
X275327Y914492D01*
X274946Y913350D01*
Y911826D01*
X275327Y910684D01*
X275708Y910303D01*
X276470Y909922D01*
X277232D01*
X277993Y910303D01*
X278755Y911445D01*
X279517Y913350D01*
X279898Y914112D01*
X280659Y914873D01*
X281802Y915254D01*
X282945D01*
X274946Y911826D02*
X275327Y911065D01*
X275708Y910684D01*
X276470Y910303D01*
X277232D01*
X277993Y910684D01*
X278755Y911826D01*
X279517Y913350D01*
X282183Y915254D02*
X281802Y914873D01*
Y914112D01*
X282564Y912207D01*
Y911065D01*
X282183Y910303D01*
X281802Y909922D01*
X281040D01*
X281802Y914112D02*
X282945Y912207D01*
Y910684D01*
X282564Y910303D01*
X281802Y909922D01*
X276089Y903790D02*
X274946Y903409D01*
X277232D01*
X276089Y903790D01*
X275327Y904552D01*
X274946Y905694D01*
Y906837D01*
X275327Y907980D01*
X276089Y908741D01*
X276851D01*
X277612Y908360D01*
X277993Y907980D01*
X278374Y907218D01*
X279136Y904933D01*
X279517Y904171D01*
X280278Y903409D01*
X276851Y908741D02*
X277612Y907980D01*
X277993Y907218D01*
X278755Y904933D01*
X279136Y904171D01*
X279517Y903790D01*
X280278Y903409D01*
X281802D01*
X282564Y904171D01*
X282945Y905313D01*
Y906456D01*
X282564Y907599D01*
X281802Y908360D01*
X280659Y908741D01*
X282945D01*
X281802Y908360D01*
X276089Y896896D02*
X277232Y896515D01*
X274946D01*
X276089Y896896D01*
X275327Y897658D01*
X274946Y898801D01*
Y899562D01*
X275327Y900705D01*
X276089Y901467D01*
X276851Y901848D01*
X277993Y902228D01*
X279898D01*
X281040Y901848D01*
X281802Y901467D01*
X282564Y900705D01*
X282945Y899562D01*
Y898801D01*
X282564Y897658D01*
X281802Y896896D01*
X281040Y896515D01*
X274946Y899562D02*
X275327Y900324D01*
X276089Y901086D01*
X276851Y901467D01*
X277993Y901848D01*
X279898D01*
X281040Y901467D01*
X281802Y901086D01*
X282564Y900324D01*
X282945Y899562D01*
X274946Y894230D02*
X282945D01*
X274946Y893849D02*
X282945D01*
X274946Y895373D02*
Y892707D01*
X282945Y895373D02*
Y889660D01*
X280659D01*
X282945Y890041D01*
X274946Y887374D02*
X282945D01*
X274946Y886994D02*
X282945D01*
X274946Y882042D02*
X279898Y886994D01*
X278374Y885089D02*
X282945Y882042D01*
X278374Y885470D02*
X282945Y882423D01*
X274946Y888517D02*
Y885851D01*
Y883566D02*
Y881281D01*
X282945Y888517D02*
Y885851D01*
Y883566D02*
Y881281D01*
X249434Y894725D02*
X257432Y893202D01*
X249434Y894344D02*
X255528Y893202D01*
X249434Y891678D02*
X257432Y893202D01*
X249434Y891678D02*
X257432Y890155D01*
X249434Y891297D02*
X255528Y890155D01*
X249434Y888631D02*
X257432Y890155D01*
X249434Y895868D02*
Y893202D01*
Y889774D02*
Y887489D01*
X250577Y881661D02*
X249434Y881281D01*
X251719D01*
X250577Y881661D01*
X249815Y882423D01*
X249434Y883566D01*
Y884708D01*
X249815Y885851D01*
X250577Y886613D01*
X251339D01*
X252100Y886232D01*
X252481Y885851D01*
X252862Y885089D01*
X253624Y882804D01*
X254005Y882042D01*
X254766Y881281D01*
X251339Y886613D02*
X252100Y885851D01*
X252481Y885089D01*
X253243Y882804D01*
X253624Y882042D01*
X254005Y881661D01*
X254766Y881281D01*
X256290D01*
X257052Y882042D01*
X257432Y883185D01*
Y884327D01*
X257052Y885470D01*
X256290Y886232D01*
X255147Y886613D01*
X257432D01*
X256290Y886232D01*
X225065Y896477D02*
X223922Y896096D01*
X226207D01*
X225065Y896477D01*
X224303Y897239D01*
X223922Y898382D01*
Y899524D01*
X224303Y900667D01*
X225065Y901429D01*
X225826D01*
X226588Y901048D01*
X226969Y900667D01*
X227350Y899905D01*
X228112Y897620D01*
X228493Y896858D01*
X229254Y896096D01*
X225826Y901429D02*
X226588Y900667D01*
X226969Y899905D01*
X227731Y897620D01*
X228112Y896858D01*
X228493Y896477D01*
X229254Y896096D01*
X230778D01*
X231539Y896858D01*
X231920Y898001D01*
Y899143D01*
X231539Y900286D01*
X230778Y901048D01*
X229635Y901429D01*
X231920D01*
X230778Y901048D01*
X223922Y893773D02*
X231920D01*
X223922Y893392D02*
X231920D01*
X223922Y894916D02*
Y891107D01*
X224303Y889964D01*
X225065Y889203D01*
X225826Y888822D01*
X226969Y888441D01*
X228873D01*
X230016Y888822D01*
X230778Y889203D01*
X231539Y889964D01*
X231920Y891107D01*
Y894916D01*
X223922Y891107D02*
X224303Y890345D01*
X225065Y889584D01*
X225826Y889203D01*
X226969Y888822D01*
X228873D01*
X230016Y889203D01*
X230778Y889584D01*
X231539Y890345D01*
X231920Y891107D01*
X223922Y884708D02*
X224303Y885851D01*
X225065Y886613D01*
X225826Y886994D01*
X227350Y887374D01*
X228493D01*
X230016Y886994D01*
X230778Y886613D01*
X231539Y885851D01*
X231920Y884708D01*
Y883947D01*
X231539Y882804D01*
X230778Y882042D01*
X230016Y881661D01*
X228493Y881281D01*
X227350D01*
X225826Y881661D01*
X225065Y882042D01*
X224303Y882804D01*
X223922Y883947D01*
Y884708D01*
X224303Y885470D01*
X225065Y886232D01*
X225826Y886613D01*
X227350Y886994D01*
X228493D01*
X230016Y886613D01*
X230778Y886232D01*
X231539Y885470D01*
X231920Y884708D01*
Y883947D02*
X231539Y883185D01*
X230778Y882423D01*
X230016Y882042D01*
X228493Y881661D01*
X227350D01*
X225826Y882042D01*
X225065Y882423D01*
X224303Y883185D01*
X223922Y883947D01*
X199552Y893049D02*
X198410Y892669D01*
X200695D01*
X199552Y893049D01*
X198791Y893811D01*
X198410Y894954D01*
Y896096D01*
X198791Y897239D01*
X199552Y898001D01*
X200314D01*
X201076Y897620D01*
X201457Y897239D01*
X201838Y896477D01*
X202600Y894192D01*
X202980Y893430D01*
X203742Y892669D01*
X200314Y898001D02*
X201076Y897239D01*
X201457Y896477D01*
X202219Y894192D01*
X202600Y893430D01*
X202980Y893049D01*
X203742Y892669D01*
X205266D01*
X206027Y893430D01*
X206408Y894573D01*
Y895715D01*
X206027Y896858D01*
X205266Y897620D01*
X204123Y898001D01*
X206408D01*
X205266Y897620D01*
X198410Y890345D02*
X206408D01*
X198410Y889964D02*
X206408D01*
X198410Y891488D02*
Y887679D01*
X198791Y886536D01*
X199552Y885775D01*
X200314Y885394D01*
X201457Y885013D01*
X203361D01*
X204504Y885394D01*
X205266Y885775D01*
X206027Y886536D01*
X206408Y887679D01*
Y891488D01*
X198410Y887679D02*
X198791Y886917D01*
X199552Y886156D01*
X200314Y885775D01*
X201457Y885394D01*
X203361D01*
X204504Y885775D01*
X205266Y886156D01*
X206027Y886917D01*
X206408Y887679D01*
X198410Y882804D02*
X206408D01*
X198410Y882423D02*
X206408D01*
X198410Y883947D02*
Y881281D01*
X206408Y883947D02*
Y881281D01*
X175390Y932053D02*
X183388D01*
X175390Y931673D02*
X183388D01*
X175390Y933196D02*
Y928625D01*
X175771Y927483D01*
X176151Y927102D01*
X176913Y926721D01*
X178056D01*
X178818Y927102D01*
X179198Y927483D01*
X179579Y928625D01*
Y931673D01*
X175390Y928625D02*
X175771Y927864D01*
X176151Y927483D01*
X176913Y927102D01*
X178056D01*
X178818Y927483D01*
X179198Y927864D01*
X179579Y928625D01*
X183388Y933196D02*
Y930530D01*
X175390Y924512D02*
X183388D01*
X175390Y924131D02*
X183388D01*
X177675Y921846D02*
X180722D01*
X175390Y925655D02*
Y919561D01*
X177675D01*
X175390Y919942D01*
X179198Y924131D02*
Y921846D01*
X183388Y925655D02*
Y919561D01*
X181103D01*
X183388Y919942D01*
X175390Y917314D02*
X183388D01*
X175390Y916933D02*
X183388D01*
X175390Y918456D02*
Y913886D01*
X175771Y912743D01*
X176151Y912362D01*
X176913Y911982D01*
X177675D01*
X178437Y912362D01*
X178818Y912743D01*
X179198Y913886D01*
Y916933D01*
X175390Y913886D02*
X175771Y913124D01*
X176151Y912743D01*
X176913Y912362D01*
X177675D01*
X178437Y912743D01*
X178818Y913124D01*
X179198Y913886D01*
X183388Y918456D02*
Y915790D01*
X179198Y915028D02*
X179579Y914267D01*
X179960Y913886D01*
X182626Y912743D01*
X183007Y912362D01*
Y911982D01*
X182626Y911601D01*
X179579Y914267D02*
X180341Y913886D01*
X183007Y913124D01*
X183388Y912743D01*
Y911982D01*
X182626Y911601D01*
X182245D01*
X176532Y905621D02*
X175390Y905240D01*
X177675D01*
X176532Y905621D01*
X175771Y906383D01*
X175390Y907525D01*
Y908668D01*
X175771Y909810D01*
X176532Y910572D01*
X177294D01*
X178056Y910191D01*
X178437Y909810D01*
X178818Y909049D01*
X179579Y906764D01*
X179960Y906002D01*
X180722Y905240D01*
X177294Y910572D02*
X178056Y909810D01*
X178437Y909049D01*
X179198Y906764D01*
X179579Y906002D01*
X179960Y905621D01*
X180722Y905240D01*
X182245D01*
X183007Y906002D01*
X183388Y907144D01*
Y908287D01*
X183007Y909430D01*
X182245Y910191D01*
X181103Y910572D01*
X183388D01*
X182245Y910191D01*
X175390Y901393D02*
X183388D01*
X175390Y901012D02*
X183388D01*
X175390Y903679D02*
X177675Y904059D01*
X175390D01*
Y898346D01*
X177675D01*
X175390Y898727D01*
X183388Y902536D02*
Y899870D01*
X186054Y896823D02*
Y890348D01*
X175390Y888177D02*
X183388D01*
X175390Y887796D02*
X182626Y883226D01*
X176151Y887796D02*
X183388Y883226D01*
X175390D02*
X183388D01*
X175390Y889320D02*
Y887796D01*
Y884368D02*
Y882083D01*
X183388Y889320D02*
Y887034D01*
X505698Y898534D02*
X506841Y898153D01*
X504555D01*
X505698Y898534D01*
X504936Y899296D01*
X504555Y900438D01*
Y901200D01*
X504936Y902343D01*
X505698Y903104D01*
X506460Y903485D01*
X507602Y903866D01*
X509507D01*
X510649Y903485D01*
X511411Y903104D01*
X512173Y902343D01*
X512554Y901200D01*
Y900438D01*
X512173Y899296D01*
X511411Y898534D01*
X504555Y901200D02*
X504936Y901962D01*
X505698Y902723D01*
X506460Y903104D01*
X507602Y903485D01*
X509507D01*
X510649Y903104D01*
X511411Y902723D01*
X512173Y901962D01*
X512554Y901200D01*
X509507Y898534D02*
X512554D01*
X509507Y898153D02*
X512554D01*
X509507Y899677D02*
Y897010D01*
X504555Y894839D02*
X512554D01*
X504555Y894459D02*
X511792Y889888D01*
X505317Y894459D02*
X512554Y889888D01*
X504555D02*
X512554D01*
X504555Y895982D02*
Y894459D01*
Y891031D02*
Y888745D01*
X512554Y895982D02*
Y893697D01*
X504555Y886613D02*
X512554D01*
X504555Y886232D02*
X512554D01*
X504555Y887755D02*
Y883947D01*
X504936Y882804D01*
X505698Y882042D01*
X506460Y881661D01*
X507602Y881281D01*
X509507D01*
X510649Y881661D01*
X511411Y882042D01*
X512173Y882804D01*
X512554Y883947D01*
Y887755D01*
X504555Y883947D02*
X504936Y883185D01*
X505698Y882423D01*
X506460Y882042D01*
X507602Y881661D01*
X509507D01*
X510649Y882042D01*
X511411Y882423D01*
X512173Y883185D01*
X512554Y883947D01*
X531210Y908018D02*
X538066D01*
X534638Y911445D02*
Y904590D01*
X531591Y903181D02*
X531972Y902800D01*
X532353Y903181D01*
X531972Y903561D01*
X531591D01*
X530829Y903181D01*
X530448Y902800D01*
X530067Y901657D01*
Y900134D01*
X530448Y898991D01*
X531210Y898610D01*
X532353D01*
X533114Y898991D01*
X533495Y900134D01*
Y901276D01*
X530067Y900134D02*
X530448Y899372D01*
X531210Y898991D01*
X532353D01*
X533114Y899372D01*
X533495Y900134D01*
X533876Y899372D01*
X534638Y898610D01*
X535400Y898229D01*
X536542D01*
X537304Y898610D01*
X537685Y898991D01*
X538066Y900134D01*
Y901657D01*
X537685Y902800D01*
X537304Y903181D01*
X536542Y903561D01*
X536161D01*
X535780Y903181D01*
X536161Y902800D01*
X536542Y903181D01*
X534257Y898991D02*
X535400Y898610D01*
X536542D01*
X537304Y898991D01*
X537685Y899372D01*
X538066Y900134D01*
X537304Y896668D02*
X537685Y897048D01*
X538066Y896668D01*
X537685Y896287D01*
X537304Y896668D01*
X531591Y894268D02*
X531972Y893887D01*
X532353Y894268D01*
X531972Y894649D01*
X531591D01*
X530829Y894268D01*
X530448Y893887D01*
X530067Y892745D01*
Y891221D01*
X530448Y890079D01*
X531210Y889698D01*
X532353D01*
X533114Y890079D01*
X533495Y891221D01*
Y892364D01*
X530067Y891221D02*
X530448Y890460D01*
X531210Y890079D01*
X532353D01*
X533114Y890460D01*
X533495Y891221D01*
X533876Y890460D01*
X534638Y889698D01*
X535400Y889317D01*
X536542D01*
X537304Y889698D01*
X537685Y890079D01*
X538066Y891221D01*
Y892745D01*
X537685Y893887D01*
X537304Y894268D01*
X536542Y894649D01*
X536161D01*
X535780Y894268D01*
X536161Y893887D01*
X536542Y894268D01*
X534257Y890079D02*
X535400Y889698D01*
X536542D01*
X537304Y890079D01*
X537685Y890460D01*
X538066Y891221D01*
X530067Y887374D02*
X538066Y884708D01*
X530067Y886994D02*
X536923Y884708D01*
X530067Y882042D02*
X538066Y884708D01*
X530067Y888136D02*
Y885851D01*
Y883566D02*
Y881281D01*
X148528Y899105D02*
X155384D01*
X151956Y902533D02*
Y895677D01*
X147386Y893887D02*
X151194Y894649D01*
X150433Y893887D01*
X150052Y892745D01*
Y891602D01*
X150433Y890460D01*
X151194Y889698D01*
X152337Y889317D01*
X153099D01*
X154241Y889698D01*
X155003Y890460D01*
X155384Y891602D01*
Y892745D01*
X155003Y893887D01*
X154622Y894268D01*
X153861Y894649D01*
X153480D01*
X153099Y894268D01*
X153480Y893887D01*
X153861Y894268D01*
X150052Y891602D02*
X150433Y890840D01*
X151194Y890079D01*
X152337Y889698D01*
X153099D01*
X154241Y890079D01*
X155003Y890840D01*
X155384Y891602D01*
X147386Y893887D02*
Y890079D01*
X147767Y893887D02*
Y891983D01*
X147386Y890079D01*
Y887374D02*
X155384Y884708D01*
X147386Y886994D02*
X154241Y884708D01*
X147386Y882042D02*
X155384Y884708D01*
X147386Y888136D02*
Y885851D01*
Y883566D02*
Y881281D01*
X126690Y869504D02*
X126309Y868361D01*
Y870646D01*
X126690Y869504D01*
X127452Y870265D01*
X128594Y870646D01*
X129356D01*
X130499Y870265D01*
X131260Y869504D01*
X131641Y868742D01*
X132022Y867599D01*
Y865695D01*
X131641Y864552D01*
X131260Y863791D01*
X130499Y863029D01*
X129356Y862648D01*
X128594D01*
X127452Y863029D01*
X126690Y863791D01*
X129356Y870646D02*
X130118Y870265D01*
X130879Y869504D01*
X131260Y868742D01*
X131641Y867599D01*
Y865695D01*
X131260Y864552D01*
X130879Y863791D01*
X130118Y863029D01*
X129356Y862648D01*
X126690Y865695D02*
Y862648D01*
X126309Y865695D02*
Y862648D01*
X127832Y865695D02*
X125166D01*
X122995Y870646D02*
Y862648D01*
X122614Y870646D02*
X118044Y863410D01*
X122614Y869884D02*
X118044Y862648D01*
Y870646D02*
Y862648D01*
X124138Y870646D02*
X122614D01*
X119187D02*
X116901D01*
X124138Y862648D02*
X121853D01*
X114769Y870646D02*
Y862648D01*
X114388Y870646D02*
Y862648D01*
X115911Y870646D02*
X112102D01*
X110960Y870265D01*
X110198Y869504D01*
X109817Y868742D01*
X109436Y867599D01*
Y865695D01*
X109817Y864552D01*
X110198Y863791D01*
X110960Y863029D01*
X112102Y862648D01*
X115911D01*
X112102Y870646D02*
X111341Y870265D01*
X110579Y869504D01*
X110198Y868742D01*
X109817Y867599D01*
Y865695D01*
X110198Y864552D01*
X110579Y863791D01*
X111341Y863029D01*
X112102Y862648D01*
X160879Y815646D02*
Y807648D01*
X160499Y815646D02*
Y807648D01*
X162022Y815646D02*
X157452D01*
X156309Y815265D01*
X155928Y814884D01*
X155547Y814123D01*
Y813361D01*
X155928Y812599D01*
X156309Y812218D01*
X157452Y811837D01*
X160499D01*
X157452Y815646D02*
X156690Y815265D01*
X156309Y814884D01*
X155928Y814123D01*
Y813361D01*
X156309Y812599D01*
X156690Y812218D01*
X157452Y811837D01*
X162022Y807648D02*
X159356D01*
X158594Y811837D02*
X157832Y811457D01*
X157452Y811076D01*
X156309Y808410D01*
X155928Y808029D01*
X155547D01*
X155166Y808410D01*
X157832Y811457D02*
X157452Y810695D01*
X156690Y808029D01*
X156309Y807648D01*
X155547D01*
X155166Y808410D01*
Y808791D01*
X153376Y815646D02*
X148425Y807648D01*
X152995Y815646D02*
X148044Y807648D01*
Y815646D02*
X153376Y807648D01*
X154138Y815646D02*
X151853D01*
X149567D02*
X147282D01*
X154138Y807648D02*
X151853D01*
X149567D02*
X147282D01*
X146254Y814123D02*
X145492Y814504D01*
X144350Y815646D01*
Y807648D01*
X144731Y815265D02*
Y807648D01*
X146254D02*
X142826D01*
X141074Y804982D02*
X134599D01*
X133190Y814123D02*
X132809Y813742D01*
X133190Y813361D01*
X133571Y813742D01*
Y814123D01*
X133190Y814884D01*
X132809Y815265D01*
X131667Y815646D01*
X130143D01*
X129001Y815265D01*
X128620Y814884D01*
X128239Y814123D01*
Y813361D01*
X128620Y812599D01*
X129762Y811837D01*
X131667Y811076D01*
X132428Y810695D01*
X133190Y809933D01*
X133571Y808791D01*
Y807648D01*
X130143Y815646D02*
X129381Y815265D01*
X129001Y814884D01*
X128620Y814123D01*
Y813361D01*
X129001Y812599D01*
X130143Y811837D01*
X131667Y811076D01*
X133571Y808410D02*
X133190Y808791D01*
X132428D01*
X130524Y808029D01*
X129381D01*
X128620Y808410D01*
X128239Y808791D01*
Y809552D01*
X132428Y808791D02*
X130524Y807648D01*
X129001D01*
X128620Y808029D01*
X128239Y808791D01*
X126677Y814123D02*
X126296Y813742D01*
X126677Y813361D01*
X127058Y813742D01*
Y814123D01*
X126677Y814884D01*
X126296Y815265D01*
X125154Y815646D01*
X123630D01*
X122488Y815265D01*
X122107Y814504D01*
Y813361D01*
X122488Y812599D01*
X123630Y812218D01*
X124773D01*
X123630Y815646D02*
X122868Y815265D01*
X122488Y814504D01*
Y813361D01*
X122868Y812599D01*
X123630Y812218D01*
X122868Y811837D01*
X122107Y811076D01*
X121726Y810314D01*
Y809172D01*
X122107Y808410D01*
X122488Y808029D01*
X123630Y807648D01*
X125154D01*
X126296Y808029D01*
X126677Y808410D01*
X127058Y809172D01*
Y809552D01*
X126677Y809933D01*
X126296Y809552D01*
X126677Y809172D01*
X122488Y811457D02*
X122107Y810314D01*
Y809172D01*
X122488Y808410D01*
X122868Y808029D01*
X123630Y807648D01*
X120164Y814123D02*
X119783Y813742D01*
X120164Y813361D01*
X120545Y813742D01*
Y814123D01*
X120164Y814884D01*
X119783Y815265D01*
X118641Y815646D01*
X117117D01*
X115975Y815265D01*
X115594Y814884D01*
X115213Y814123D01*
Y813361D01*
X115594Y812599D01*
X116736Y811837D01*
X118641Y811076D01*
X119403Y810695D01*
X120164Y809933D01*
X120545Y808791D01*
Y807648D01*
X117117Y815646D02*
X116356Y815265D01*
X115975Y814884D01*
X115594Y814123D01*
Y813361D01*
X115975Y812599D01*
X117117Y811837D01*
X118641Y811076D01*
X120545Y808410D02*
X120164Y808791D01*
X119403D01*
X117498Y808029D01*
X116356D01*
X115594Y808410D01*
X115213Y808791D01*
Y809552D01*
X119403Y808791D02*
X117498Y807648D01*
X115975D01*
X115594Y808029D01*
X115213Y808791D01*
X159356Y785646D02*
Y777648D01*
X158975Y785646D02*
Y777648D01*
X161641Y785646D02*
X162022Y783361D01*
Y785646D01*
X156309D01*
Y783361D01*
X156690Y785646D01*
X160499Y777648D02*
X157832D01*
X154405Y785646D02*
X149453Y777648D01*
X154024Y785646D02*
X149072Y777648D01*
Y785646D02*
X154405Y777648D01*
X155166Y785646D02*
X152881D01*
X150596D02*
X148311D01*
X155166Y777648D02*
X152881D01*
X150596D02*
X148311D01*
X147282Y784123D02*
X146521Y784504D01*
X145378Y785646D01*
Y777648D01*
X145759Y785265D02*
Y777648D01*
X147282D02*
X143855D01*
X142102Y774982D02*
X135628D01*
X134218Y784123D02*
X133838Y783742D01*
X134218Y783361D01*
X134599Y783742D01*
Y784123D01*
X134218Y784884D01*
X133838Y785265D01*
X132695Y785646D01*
X131172D01*
X130029Y785265D01*
X129648Y784884D01*
X129267Y784123D01*
Y783361D01*
X129648Y782599D01*
X130791Y781837D01*
X132695Y781076D01*
X133457Y780695D01*
X134218Y779933D01*
X134599Y778791D01*
Y777648D01*
X131172Y785646D02*
X130410Y785265D01*
X130029Y784884D01*
X129648Y784123D01*
Y783361D01*
X130029Y782599D01*
X131172Y781837D01*
X132695Y781076D01*
X134599Y778410D02*
X134218Y778791D01*
X133457D01*
X131552Y778029D01*
X130410D01*
X129648Y778410D01*
X129267Y778791D01*
Y779552D01*
X133457Y778791D02*
X131552Y777648D01*
X130029D01*
X129648Y778029D01*
X129267Y778791D01*
X127705Y784123D02*
X127325Y783742D01*
X127705Y783361D01*
X128086Y783742D01*
Y784123D01*
X127705Y784884D01*
X127325Y785265D01*
X126182Y785646D01*
X124659D01*
X123516Y785265D01*
X123135Y784504D01*
Y783361D01*
X123516Y782599D01*
X124659Y782218D01*
X125801D01*
X124659Y785646D02*
X123897Y785265D01*
X123516Y784504D01*
Y783361D01*
X123897Y782599D01*
X124659Y782218D01*
X123897Y781837D01*
X123135Y781076D01*
X122754Y780314D01*
Y779171D01*
X123135Y778410D01*
X123516Y778029D01*
X124659Y777648D01*
X126182D01*
X127325Y778029D01*
X127705Y778410D01*
X128086Y779171D01*
Y779552D01*
X127705Y779933D01*
X127325Y779552D01*
X127705Y779171D01*
X123516Y781457D02*
X123135Y780314D01*
Y779171D01*
X123516Y778410D01*
X123897Y778029D01*
X124659Y777648D01*
X121193Y784123D02*
X120812Y783742D01*
X121193Y783361D01*
X121573Y783742D01*
Y784123D01*
X121193Y784884D01*
X120812Y785265D01*
X119669Y785646D01*
X118146D01*
X117003Y785265D01*
X116622Y784884D01*
X116241Y784123D01*
Y783361D01*
X116622Y782599D01*
X117765Y781837D01*
X119669Y781076D01*
X120431Y780695D01*
X121193Y779933D01*
X121573Y778791D01*
Y777648D01*
X118146Y785646D02*
X117384Y785265D01*
X117003Y784884D01*
X116622Y784123D01*
Y783361D01*
X117003Y782599D01*
X118146Y781837D01*
X119669Y781076D01*
X121573Y778410D02*
X121193Y778791D01*
X120431D01*
X118527Y778029D01*
X117384D01*
X116622Y778410D01*
X116241Y778791D01*
Y779552D01*
X120431Y778791D02*
X118527Y777648D01*
X117003D01*
X116622Y778029D01*
X116241Y778791D01*
X125924Y447368D02*
X125543Y446225D01*
Y448510D01*
X125924Y447368D01*
X126686Y448129D01*
X127828Y448510D01*
X128590D01*
X129733Y448129D01*
X130494Y447368D01*
X130875Y446606D01*
X131256Y445463D01*
Y443559D01*
X130875Y442416D01*
X130494Y441655D01*
X129733Y440893D01*
X128590Y440512D01*
X127828D01*
X126686Y440893D01*
X125924Y441655D01*
X128590Y448510D02*
X129352Y448129D01*
X130113Y447368D01*
X130494Y446606D01*
X130875Y445463D01*
Y443559D01*
X130494Y442416D01*
X130113Y441655D01*
X129352Y440893D01*
X128590Y440512D01*
X125924Y443559D02*
Y440512D01*
X125543Y443559D02*
Y440512D01*
X127066Y443559D02*
X124400D01*
X122229Y448510D02*
Y440512D01*
X121848Y448510D02*
X117278Y441274D01*
X121848Y447748D02*
X117278Y440512D01*
Y448510D02*
Y440512D01*
X123372Y448510D02*
X121848D01*
X118421D02*
X116135D01*
X123372Y440512D02*
X121087D01*
X114003Y448510D02*
Y440512D01*
X113622Y448510D02*
Y440512D01*
X115145Y448510D02*
X111336D01*
X110194Y448129D01*
X109432Y447368D01*
X109051Y446606D01*
X108670Y445463D01*
Y443559D01*
X109051Y442416D01*
X109432Y441655D01*
X110194Y440893D01*
X111336Y440512D01*
X115145D01*
X111336Y448510D02*
X110575Y448129D01*
X109813Y447368D01*
X109432Y446606D01*
X109051Y445463D01*
Y443559D01*
X109432Y442416D01*
X109813Y441655D01*
X110575Y440893D01*
X111336Y440512D01*
X160113Y393510D02*
Y385512D01*
X159733Y393510D02*
Y385512D01*
X161256Y393510D02*
X156686D01*
X155543Y393129D01*
X155162Y392748D01*
X154781Y391987D01*
Y391225D01*
X155162Y390463D01*
X155543Y390082D01*
X156686Y389701D01*
X159733D01*
X156686Y393510D02*
X155924Y393129D01*
X155543Y392748D01*
X155162Y391987D01*
Y391225D01*
X155543Y390463D01*
X155924Y390082D01*
X156686Y389701D01*
X161256Y385512D02*
X158590D01*
X157828Y389701D02*
X157066Y389321D01*
X156686Y388940D01*
X155543Y386274D01*
X155162Y385893D01*
X154781D01*
X154400Y386274D01*
X157066Y389321D02*
X156686Y388559D01*
X155924Y385893D01*
X155543Y385512D01*
X154781D01*
X154400Y386274D01*
Y386655D01*
X152610Y393510D02*
X147659Y385512D01*
X152229Y393510D02*
X147278Y385512D01*
Y393510D02*
X152610Y385512D01*
X153372Y393510D02*
X151087D01*
X148801D02*
X146516D01*
X153372Y385512D02*
X151087D01*
X148801D02*
X146516D01*
X143203Y393510D02*
X144345Y393129D01*
X145107Y391987D01*
X145488Y390082D01*
Y388940D01*
X145107Y387035D01*
X144345Y385893D01*
X143203Y385512D01*
X142441D01*
X141298Y385893D01*
X140537Y387035D01*
X140156Y388940D01*
Y390082D01*
X140537Y391987D01*
X141298Y393129D01*
X142441Y393510D01*
X143203D01*
X143965Y393129D01*
X144345Y392748D01*
X144726Y391987D01*
X145107Y390082D01*
Y388940D01*
X144726Y387035D01*
X144345Y386274D01*
X143965Y385893D01*
X143203Y385512D01*
X142441D02*
X141679Y385893D01*
X141298Y386274D01*
X140918Y387035D01*
X140537Y388940D01*
Y390082D01*
X140918Y391987D01*
X141298Y392748D01*
X141679Y393129D01*
X142441Y393510D01*
X138594Y382846D02*
X132119D01*
X130710Y391987D02*
X130329Y391606D01*
X130710Y391225D01*
X131091Y391606D01*
Y391987D01*
X130710Y392748D01*
X130329Y393129D01*
X129187Y393510D01*
X127663D01*
X126521Y393129D01*
X126140Y392748D01*
X125759Y391987D01*
Y391225D01*
X126140Y390463D01*
X127282Y389701D01*
X129187Y388940D01*
X129948Y388559D01*
X130710Y387797D01*
X131091Y386655D01*
Y385512D01*
X127663Y393510D02*
X126901Y393129D01*
X126521Y392748D01*
X126140Y391987D01*
Y391225D01*
X126521Y390463D01*
X127663Y389701D01*
X129187Y388940D01*
X131091Y386274D02*
X130710Y386655D01*
X129948D01*
X128044Y385893D01*
X126901D01*
X126140Y386274D01*
X125759Y386655D01*
Y387416D01*
X129948Y386655D02*
X128044Y385512D01*
X126521D01*
X126140Y385893D01*
X125759Y386655D01*
X124197Y391987D02*
X123816Y391606D01*
X124197Y391225D01*
X124578Y391606D01*
Y391987D01*
X124197Y392748D01*
X123816Y393129D01*
X122674Y393510D01*
X121150D01*
X120008Y393129D01*
X119627Y392368D01*
Y391225D01*
X120008Y390463D01*
X121150Y390082D01*
X122293D01*
X121150Y393510D02*
X120389Y393129D01*
X120008Y392368D01*
Y391225D01*
X120389Y390463D01*
X121150Y390082D01*
X120389Y389701D01*
X119627Y388940D01*
X119246Y388178D01*
Y387035D01*
X119627Y386274D01*
X120008Y385893D01*
X121150Y385512D01*
X122674D01*
X123816Y385893D01*
X124197Y386274D01*
X124578Y387035D01*
Y387416D01*
X124197Y387797D01*
X123816Y387416D01*
X124197Y387035D01*
X120008Y389321D02*
X119627Y388178D01*
Y387035D01*
X120008Y386274D01*
X120389Y385893D01*
X121150Y385512D01*
X117684Y391987D02*
X117303Y391606D01*
X117684Y391225D01*
X118065Y391606D01*
Y391987D01*
X117684Y392748D01*
X117303Y393129D01*
X116161Y393510D01*
X114637D01*
X113495Y393129D01*
X113114Y392748D01*
X112733Y391987D01*
Y391225D01*
X113114Y390463D01*
X114256Y389701D01*
X116161Y388940D01*
X116923Y388559D01*
X117684Y387797D01*
X118065Y386655D01*
Y385512D01*
X114637Y393510D02*
X113876Y393129D01*
X113495Y392748D01*
X113114Y391987D01*
Y391225D01*
X113495Y390463D01*
X114637Y389701D01*
X116161Y388940D01*
X118065Y386274D02*
X117684Y386655D01*
X116923D01*
X115018Y385893D01*
X113876D01*
X113114Y386274D01*
X112733Y386655D01*
Y387416D01*
X116923Y386655D02*
X115018Y385512D01*
X113495D01*
X113114Y385893D01*
X112733Y386655D01*
X158590Y368510D02*
Y360512D01*
X158209Y368510D02*
Y360512D01*
X160875Y368510D02*
X161256Y366225D01*
Y368510D01*
X155543D01*
Y366225D01*
X155924Y368510D01*
X159733Y360512D02*
X157066D01*
X153639Y368510D02*
X148687Y360512D01*
X153258Y368510D02*
X148306Y360512D01*
Y368510D02*
X153639Y360512D01*
X154400Y368510D02*
X152115D01*
X149830D02*
X147545D01*
X154400Y360512D02*
X152115D01*
X149830D02*
X147545D01*
X144231Y368510D02*
X145374Y368129D01*
X146135Y366987D01*
X146516Y365082D01*
Y363940D01*
X146135Y362035D01*
X145374Y360893D01*
X144231Y360512D01*
X143469D01*
X142327Y360893D01*
X141565Y362035D01*
X141184Y363940D01*
Y365082D01*
X141565Y366987D01*
X142327Y368129D01*
X143469Y368510D01*
X144231D01*
X144993Y368129D01*
X145374Y367748D01*
X145754Y366987D01*
X146135Y365082D01*
Y363940D01*
X145754Y362035D01*
X145374Y361274D01*
X144993Y360893D01*
X144231Y360512D01*
X143469D02*
X142708Y360893D01*
X142327Y361274D01*
X141946Y362035D01*
X141565Y363940D01*
Y365082D01*
X141946Y366987D01*
X142327Y367748D01*
X142708Y368129D01*
X143469Y368510D01*
X139622Y357846D02*
X133148D01*
X131739Y366987D02*
X131358Y366606D01*
X131739Y366225D01*
X132119Y366606D01*
Y366987D01*
X131739Y367748D01*
X131358Y368129D01*
X130215Y368510D01*
X128692D01*
X127549Y368129D01*
X127168Y367748D01*
X126787Y366987D01*
Y366225D01*
X127168Y365463D01*
X128311Y364701D01*
X130215Y363940D01*
X130977Y363559D01*
X131739Y362797D01*
X132119Y361655D01*
Y360512D01*
X128692Y368510D02*
X127930Y368129D01*
X127549Y367748D01*
X127168Y366987D01*
Y366225D01*
X127549Y365463D01*
X128692Y364701D01*
X130215Y363940D01*
X132119Y361274D02*
X131739Y361655D01*
X130977D01*
X129072Y360893D01*
X127930D01*
X127168Y361274D01*
X126787Y361655D01*
Y362416D01*
X130977Y361655D02*
X129072Y360512D01*
X127549D01*
X127168Y360893D01*
X126787Y361655D01*
X125226Y366987D02*
X124845Y366606D01*
X125226Y366225D01*
X125606Y366606D01*
Y366987D01*
X125226Y367748D01*
X124845Y368129D01*
X123702Y368510D01*
X122179D01*
X121036Y368129D01*
X120655Y367368D01*
Y366225D01*
X121036Y365463D01*
X122179Y365082D01*
X123321D01*
X122179Y368510D02*
X121417Y368129D01*
X121036Y367368D01*
Y366225D01*
X121417Y365463D01*
X122179Y365082D01*
X121417Y364701D01*
X120655Y363940D01*
X120274Y363178D01*
Y362035D01*
X120655Y361274D01*
X121036Y360893D01*
X122179Y360512D01*
X123702D01*
X124845Y360893D01*
X125226Y361274D01*
X125606Y362035D01*
Y362416D01*
X125226Y362797D01*
X124845Y362416D01*
X125226Y362035D01*
X121036Y364321D02*
X120655Y363178D01*
Y362035D01*
X121036Y361274D01*
X121417Y360893D01*
X122179Y360512D01*
X118713Y366987D02*
X118332Y366606D01*
X118713Y366225D01*
X119094Y366606D01*
Y366987D01*
X118713Y367748D01*
X118332Y368129D01*
X117189Y368510D01*
X115666D01*
X114523Y368129D01*
X114142Y367748D01*
X113761Y366987D01*
Y366225D01*
X114142Y365463D01*
X115285Y364701D01*
X117189Y363940D01*
X117951Y363559D01*
X118713Y362797D01*
X119094Y361655D01*
Y360512D01*
X115666Y368510D02*
X114904Y368129D01*
X114523Y367748D01*
X114142Y366987D01*
Y366225D01*
X114523Y365463D01*
X115666Y364701D01*
X117189Y363940D01*
X119094Y361274D02*
X118713Y361655D01*
X117951D01*
X116047Y360893D01*
X114904D01*
X114142Y361274D01*
X113761Y361655D01*
Y362416D01*
X117951Y361655D02*
X116047Y360512D01*
X114523D01*
X114142Y360893D01*
X113761Y361655D01*
M02*
